<svg width="1140" height="1175" viewBox="0 0 1140 1175" fill="none" xmlns="http://www.w3.org/2000/svg">
<rect x="100" width="933" height="1175" fill="#E1F4F4"/>
<path opacity="0.6" d="M861.078 422H785.957V1084.54H861.078V422Z" fill="#9BC1F9"/>
<path opacity="0.6" d="M756.171 624.092H681.05V1084.54H756.171V624.092Z" fill="#9BC1F9"/>
<path opacity="0.6" d="M967.499 565.544H892.378V1084.54H967.499V565.544Z" fill="#9BC1F9"/>
<path opacity="0.6" d="M651.264 545.137H576.144V1084.55H651.264V545.137Z" fill="#9BC1F9"/>
<path opacity="0.6" d="M546.358 705.064H471.237V1084.54H546.358V705.064Z" fill="#9BC1F9"/>
<g style="mix-blend-mode:multiply" opacity="0.3">
<path d="M861.078 574.697H785.957V1084.54H861.078V574.697Z" fill="#9BC1F9"/>
</g>
<g style="mix-blend-mode:multiply" opacity="0.3">
<path d="M756.171 730.211H681.05V1084.54H756.171V730.211Z" fill="#9BC1F9"/>
</g>
<g style="mix-blend-mode:multiply" opacity="0.3">
<path d="M967.499 685.16H892.378V1084.54H967.499V685.16Z" fill="#9BC1F9"/>
</g>
<g style="mix-blend-mode:multiply" opacity="0.3">
<path d="M651.264 669.453H576.144V1084.54H651.264V669.453Z" fill="#9BC1F9"/>
</g>
<g style="mix-blend-mode:multiply" opacity="0.3">
<path d="M546.358 792.525H471.237V1084.54H546.358V792.525Z" fill="#9BC1F9"/>
</g>
<path d="M1004.01 427.07L944.149 478.652L966.985 480.313L824.095 766.873L744.982 631.713L633.062 929.177L561.075 812.666L471.35 957.189L476.995 983.057L561.037 848.345L637.133 971.503L748.64 675.127L825.403 806.263L983.595 489.014L998.282 507.014L1004.01 427.07Z" fill="#5183BF"/>
<path d="M402.912 892.969C317.015 815.025 244.844 714.211 190.205 595.838L72.0513 703.985C135.237 840.849 218.694 957.412 318 1047.51C346.307 996.002 374.611 944.488 402.912 892.969Z" fill="#3C8F7C"/>
<path d="M171.695 624.105L98.3062 692.354C104.135 704.741 102.021 721.425 93.3394 729.895C148.885 841.806 218.496 939.04 299.554 1017.94C306.185 1006.6 318.672 1004.4 327.668 1012.7L381.208 916.735C372.962 909.097 371.77 893.485 378.393 882.158C307.197 812.871 246.059 727.486 197.29 629.21C188.62 637.676 177.059 635.493 171.695 624.105Z" fill="#96D9C9"/>
<path d="M270.559 879.932C288.9 852.963 288.724 813.175 271.425 789.379C254.076 765.638 224.437 764.524 203.951 788.525C183.465 812.525 181.508 855.039 201.008 881.782C220.508 908.525 252.258 906.859 270.559 879.932Z" fill="#50BFA5"/>
<path d="M269.344 803.397L262.428 812.158C267.942 823.69 266.776 835.573 260.831 843.339C254.886 851.104 248.112 851.882 237.867 844.975C230.427 840.187 226.85 838.773 224.586 841.558C222.667 843.92 222.03 848.208 226.086 854.064C227.884 856.696 230.035 858.989 232.458 860.86C235.06 862.855 235.884 867.361 234.28 870.83C232.728 874.178 229.452 875.289 226.94 873.251C224.469 871.193 222.219 868.812 220.234 866.157L214.237 873.679C212.15 870.697 210.074 867.699 208.01 864.683L214.521 856.64C209.274 845.052 210.301 833.528 216.414 826.219C223.162 818.146 230.963 820.628 239.903 827.018C246.107 831.426 249.702 832.144 252.273 828.867C254.979 825.429 254.099 820.188 250.687 815.233C248.527 812.106 245.91 809.427 242.95 807.314C240.326 805.426 239.603 800.804 241.372 797.353L241.567 796.973C243.172 793.838 246.238 792.778 248.577 794.517C251.742 796.923 254.598 799.818 257.064 803.119C259.23 800.434 261.396 797.745 263.56 795.051C265.482 797.85 267.41 800.632 269.344 803.397Z" fill="#3C8F7C"/>
<path d="M338.231 949.334C318.656 930.232 299.808 910.014 281.688 888.68L272.38 902.472C290.74 924.088 309.852 944.591 329.714 963.98L338.231 949.334Z" fill="#50BFA5"/>
<path d="M385.399 861.544C277.509 845.949 171.695 804.815 73.5207 740.309L17.54 889.765C131.035 964.352 253.376 1011.93 378.123 1029.94C380.545 973.81 382.97 917.678 385.399 861.544Z" fill="#3C8F7C"/>
<path d="M69.6344 772.702C58.1989 803.934 46.7609 835.168 35.3203 866.403C45.6813 873.088 51.0154 887.474 47.1282 898.866C143.29 957.764 245.344 997.437 349.455 1016.39C350.336 1003.83 360.217 995.357 371.572 997.108C373.321 962.108 375.062 927.107 376.794 892.104C366.354 890.49 358.632 878.739 359.513 866.181C268.09 849.523 178.458 814.694 94.0224 762.976C90.1202 774.359 79.1707 778.84 69.6344 772.702Z" fill="#96D9C9"/>
<path d="M265.1 922.484C269.419 891.204 252.194 859.72 226.985 850.148C201.765 840.652 175.597 855.726 168.133 885.818C160.67 915.91 177.246 950.692 205.619 961.422C233.991 972.152 260.793 953.712 265.1 922.484Z" fill="#50BFA5"/>
<path d="M231.203 862.399L228.954 873.077C238.674 879.245 242.767 889.308 240.949 898.706C239.109 908.15 233.595 912.344 221.749 912.374C213.248 912.579 209.54 913.382 208.779 916.825C208.131 919.734 209.42 923.48 215.455 925.936C218.167 927.06 221.009 927.723 223.89 927.9C227.005 928.08 229.647 931.215 229.745 934.829C229.839 938.323 227.496 940.971 224.426 940.702C221.418 940.407 218.448 939.73 215.572 938.686C214.919 941.753 214.266 944.817 213.611 947.878C210.522 946.633 207.437 945.372 204.356 944.093C205.088 940.796 205.818 937.498 206.545 934.201C197.009 927.841 192.972 918.136 195.135 909.042C197.515 899 205.342 896.766 215.834 897.023C223.099 897.181 226.514 895.797 227.342 891.829C228.212 887.643 225.202 883.956 220.119 881.863C216.869 880.531 213.451 879.81 209.998 879.728C206.909 879.647 204.307 876.366 204.375 872.671C204.375 872.539 204.375 872.402 204.375 872.27C204.42 868.917 206.624 866.422 209.398 866.542C213.15 866.745 216.864 867.503 220.445 868.797C221.167 865.5 221.889 862.201 222.611 858.9C225.478 860.082 228.342 861.248 231.203 862.399Z" fill="#3C8F7C"/>
<path d="M335.856 613.436C333.236 612.456 330.672 611.29 328.179 609.946C325.364 608.404 321.72 606.601 319.419 606.2C314.575 605.346 306.25 605.914 301.654 611.578C295.927 618.634 285.753 612.859 287.803 649.802C290.124 691.624 310.598 687.032 311.097 686.323C311.595 685.614 329.36 659.567 329.36 659.567C329.36 659.567 335.571 674.999 335.571 674.431C335.571 673.863 367.287 625.46 335.856 613.436Z" fill="#0E2E35"/>
<path d="M357.438 889.146C272.553 927.362 178.892 944.832 81.3921 940.637C87.8646 987.907 94.3358 1035.18 100.806 1082.45C213.536 1087.3 321.827 1067.1 419.975 1022.91L357.438 889.146Z" fill="#3C8F7C"/>
<path d="M91.6187 967.538C95.867 997.053 100.115 1026.57 104.364 1056.08C114.601 1056.43 124.283 1065.08 126.041 1075.73C219.826 1076.51 310.159 1059.66 393.646 1025.81C389.226 1015.68 393.012 1004.51 401.983 1000.58C389.15 972.671 376.32 944.764 363.493 916.858C355.246 920.471 344.878 914.97 340.462 904.838C267.148 934.563 187.821 949.359 105.462 948.671C107.194 959.268 101.02 967.854 91.6187 967.538Z" fill="#96D9C9"/>
<path d="M294.339 992.41C284.885 966.175 259.654 949.829 237.432 954.164C215.233 958.568 202.241 982.437 208.917 1009.22C215.593 1036 241.687 1055.2 266.675 1050.27C291.662 1045.33 303.785 1018.59 294.339 992.41Z" fill="#50BFA5"/>
<path d="M245.439 961.683L248.105 970.986C257.671 971.229 264.711 977.119 267.166 985.222C269.629 993.393 267.301 999.211 258.683 1004.76C252.569 1008.88 250.193 1011.23 251.025 1014.25C251.722 1016.81 254.173 1019.1 259.56 1018.19C261.968 1017.81 264.308 1016.99 266.495 1015.78C268.838 1014.47 272.024 1015.66 273.553 1018.42C275.027 1021.08 274.374 1024.23 272.054 1025.45C269.729 1026.62 267.291 1027.48 264.789 1028.01C265.539 1030.69 266.297 1033.36 267.065 1036.04C264.316 1036.51 261.559 1036.97 258.795 1037.42C258.001 1034.53 257.205 1031.63 256.408 1028.74C246.898 1028.26 240.049 1022.63 237.961 1014.58C235.652 1005.7 240.454 1000.32 248.202 995.623C253.559 992.36 255.489 989.699 254.496 986.226C253.443 982.578 249.761 981.13 245.214 981.873C242.342 982.353 239.564 983.392 237.001 984.945C234.715 986.324 231.499 984.996 230.048 982.113L229.89 981.797C228.575 979.178 229.174 976.218 231.244 975.022C234.077 973.417 237.092 972.267 240.203 971.605C239.395 968.715 238.592 965.823 237.792 962.93C240.341 962.54 242.89 962.124 245.439 961.683Z" fill="#3C8F7C"/>
<path d="M366.269 965.612C346.08 973.765 325.483 980.858 304.479 986.892C306.098 991.346 307.722 995.8 309.352 1000.25C330.631 994.142 351.516 986.949 372.008 978.674L366.269 965.612Z" fill="#50BFA5"/>
<path d="M217.386 1045.05V1079.68C217.386 1085.28 272.197 1089.82 339.809 1089.82C407.422 1089.82 462.237 1085.28 462.237 1079.68V1045.05H217.386Z" fill="#E59F39"/>
<path d="M305.982 1089.43V1045.05H217.386V1079.68C217.386 1084.31 254.822 1088.21 305.982 1089.43Z" fill="#EAB054"/>
<path d="M310.105 1089.52C319.616 1089.72 329.564 1089.82 339.809 1089.82C355.073 1089.82 369.685 1089.59 383.161 1089.17V1045.05H310.105V1089.52Z" fill="#EAB054"/>
<path d="M388.067 1089C431.685 1087.45 462.236 1083.88 462.236 1079.68V1045.05H388.067V1089Z" fill="#EAB054"/>
<path d="M339.809 1054.82C407.422 1054.82 462.233 1050.28 462.233 1044.68C462.233 1039.08 407.422 1034.55 339.809 1034.55C272.197 1034.55 217.386 1039.08 217.386 1044.68C217.386 1050.28 272.197 1054.82 339.809 1054.82Z" fill="#E59F39"/>
<path d="M440.607 1044.68C440.607 1048.57 395.471 1051.71 339.794 1051.71C284.117 1051.71 238.981 1048.57 238.981 1044.68C238.981 1040.8 284.117 1037.66 339.794 1037.66C395.471 1037.66 440.607 1040.81 440.607 1044.68Z" fill="#F7CC7F"/>
<path d="M196.439 1008.41V1043.04C196.439 1048.63 251.251 1053.17 318.863 1053.17C386.475 1053.17 441.29 1048.63 441.29 1043.04V1008.41H196.439Z" fill="#E59F39"/>
<path d="M285.044 1052.78V1008.41H196.439V1043.04C196.439 1047.66 233.876 1051.57 285.044 1052.78Z" fill="#EAB054"/>
<path d="M289.167 1052.88C298.677 1053.07 308.629 1053.17 318.87 1053.17C334.138 1053.17 348.75 1052.94 362.226 1052.52V1008.41H289.167V1052.88Z" fill="#EAB054"/>
<path d="M367.136 1052.35C410.754 1050.8 441.304 1047.23 441.304 1043.04V1008.41H367.136V1052.35Z" fill="#EAB054"/>
<path d="M318.863 1018.18C386.476 1018.18 441.287 1013.64 441.287 1008.04C441.287 1002.44 386.476 997.904 318.863 997.904C251.25 997.904 196.439 1002.44 196.439 1008.04C196.439 1013.64 251.25 1018.18 318.863 1018.18Z" fill="#E59F39"/>
<path d="M419.678 1008.04C419.678 1011.92 374.542 1015.06 318.843 1015.06C263.143 1015.06 218.029 1011.92 218.029 1008.04C218.029 1004.16 263.165 1001.01 318.843 1001.01C374.52 1001.01 419.678 1004.16 419.678 1008.04Z" fill="#F7CC7F"/>
<path d="M210.395 970.787V1005.42C210.395 1011.02 265.206 1015.55 332.819 1015.55C400.431 1015.55 455.246 1011.02 455.246 1005.42V970.787H210.395Z" fill="#E59F39"/>
<path d="M298.992 1015.16V970.787H210.395V1005.42C210.395 1010.04 247.832 1013.95 298.992 1015.16Z" fill="#EAB054"/>
<path d="M303.114 1015.25C312.624 1015.45 322.573 1015.55 332.818 1015.55C348.082 1015.55 362.697 1015.32 376.173 1014.9V970.787H303.114V1015.25Z" fill="#EAB054"/>
<path d="M381.076 1014.74C424.694 1013.18 455.245 1009.61 455.245 1005.42V970.787H381.076V1014.74Z" fill="#EAB054"/>
<path d="M332.819 980.552C400.431 980.552 455.242 976.014 455.242 970.416C455.242 964.818 400.431 960.28 332.819 960.28C265.206 960.28 210.395 964.818 210.395 970.416C210.395 976.014 265.206 980.552 332.819 980.552Z" fill="#E59F39"/>
<path d="M433.634 970.417C433.634 974.3 388.498 977.448 332.799 977.448C277.099 977.448 231.985 974.3 231.985 970.417C231.985 966.534 277.122 963.391 332.799 963.391C388.476 963.391 433.634 966.539 433.634 970.417Z" fill="#F7CC7F"/>
<path d="M196.439 933.684V968.312C196.439 973.912 251.251 978.452 318.863 978.452C386.475 978.452 441.29 973.912 441.29 968.312V933.684H196.439Z" fill="#E59F39"/>
<path d="M285.044 978.059V933.684H196.439V968.312C196.439 972.942 233.876 976.842 285.044 978.059Z" fill="#EAB054"/>
<path d="M289.167 978.149C298.677 978.345 308.629 978.452 318.87 978.452C334.138 978.452 348.75 978.217 362.226 977.794V933.684H289.167V978.149Z" fill="#EAB054"/>
<path d="M367.136 977.632C410.754 976.081 441.304 972.506 441.304 968.312V933.684H367.136V977.632Z" fill="#EAB054"/>
<path d="M318.863 943.452C386.476 943.452 441.287 938.914 441.287 933.316C441.287 927.718 386.476 923.18 318.863 923.18C251.25 923.18 196.439 927.718 196.439 933.316C196.439 938.914 251.25 943.452 318.863 943.452Z" fill="#E59F39"/>
<path d="M419.678 933.317C419.678 937.195 374.542 940.343 318.843 940.343C263.143 940.343 218.029 937.195 218.029 933.317C218.029 929.438 263.165 926.286 318.843 926.286C374.52 926.286 419.678 929.434 419.678 933.317Z" fill="#F7CC7F"/>
<path d="M1053.59 1042.1V1075.41C1053.59 1080.8 1000.89 1085.16 935.864 1085.16C870.842 1085.16 818.134 1080.8 818.134 1075.41V1042.1H1053.59Z" fill="#E59F39"/>
<path d="M968.402 1084.77V1042.1H1053.6V1075.41C1053.6 1079.85 1017.59 1083.6 968.402 1084.77Z" fill="#EAB054"/>
<path d="M964.433 1084.86C955.286 1085.04 945.716 1085.15 935.865 1085.15C921.186 1085.15 907.133 1084.93 894.174 1084.51V1042.1H964.433V1084.86Z" fill="#EAB054"/>
<path d="M889.457 1084.36C847.511 1082.87 818.134 1079.42 818.134 1075.39V1042.08H889.457V1084.36Z" fill="#EAB054"/>
<path d="M935.864 1051.49C1000.88 1051.49 1053.59 1047.12 1053.59 1041.74C1053.59 1036.36 1000.88 1031.99 935.864 1031.99C870.844 1031.99 818.134 1036.36 818.134 1041.74C818.134 1047.12 870.844 1051.49 935.864 1051.49Z" fill="#E59F39"/>
<path d="M838.916 1041.74C838.916 1045.47 882.32 1048.5 935.864 1048.5C989.409 1048.5 1032.81 1045.47 1032.81 1041.74C1032.81 1038.01 989.409 1034.98 935.864 1034.98C882.32 1034.98 838.916 1038.01 838.916 1041.74Z" fill="#F7CC7F"/>
<path d="M1073.74 1006.85V1040.17C1073.74 1045.55 1021.02 1049.91 956.006 1049.91C890.987 1049.91 838.271 1045.55 838.271 1040.17V1006.85H1073.74Z" fill="#E59F39"/>
<path d="M988.538 1049.53V1006.85H1073.73V1040.17C1073.73 1044.61 1037.75 1048.36 988.538 1049.53Z" fill="#EAB054"/>
<path d="M984.572 1049.62C975.426 1049.8 965.86 1049.9 956.009 1049.9C941.329 1049.9 927.276 1049.68 914.317 1049.27V1006.85H984.572V1049.62Z" fill="#EAB054"/>
<path d="M909.599 1049.12C867.653 1047.63 838.275 1044.18 838.275 1040.15V1006.83H909.599V1049.12Z" fill="#EAB054"/>
<path d="M956.009 1016.25C1021.03 1016.25 1073.74 1011.88 1073.74 1006.5C1073.74 1001.11 1021.03 996.751 956.009 996.751C890.988 996.751 838.278 1001.11 838.278 1006.5C838.278 1011.88 890.988 1016.25 956.009 1016.25Z" fill="#E59F39"/>
<path d="M956.009 1013.25C1009.55 1013.25 1052.96 1010.23 1052.96 1006.5C1052.96 1002.77 1009.55 999.74 956.009 999.74C902.466 999.74 859.061 1002.77 859.061 1006.5C859.061 1010.23 902.466 1013.25 956.009 1013.25Z" fill="#F7CC7F"/>
<path d="M1060.32 970.673V1003.99C1060.32 1009.38 1007.61 1013.74 942.586 1013.74C877.564 1013.74 824.855 1009.38 824.855 1003.99V970.673H1060.32Z" fill="#E59F39"/>
<path d="M975.119 1013.34V970.665H1060.32V1003.98C1060.32 1008.43 1024.31 1012.18 975.119 1013.34Z" fill="#EAB054"/>
<path d="M971.153 1013.44C962.006 1013.63 952.436 1013.72 942.585 1013.72C927.906 1013.72 913.856 1013.5 900.897 1013.1V970.673H971.153V1013.44Z" fill="#EAB054"/>
<path d="M896.179 1012.94C854.233 1011.45 824.855 1008 824.855 1003.97V970.653H896.179V1012.94Z" fill="#EAB054"/>
<path d="M942.586 980.071C1007.61 980.071 1060.32 975.707 1060.32 970.324C1060.32 964.94 1007.61 960.576 942.586 960.576C877.565 960.576 824.855 964.94 824.855 970.324C824.855 975.707 877.565 980.071 942.586 980.071Z" fill="#E59F39"/>
<path d="M942.584 977.079C996.127 977.079 1039.53 974.054 1039.53 970.322C1039.53 966.59 996.127 963.564 942.584 963.564C889.041 963.564 845.636 966.59 845.636 970.322C845.636 974.054 889.041 977.079 942.584 977.079Z" fill="#F7CC7F"/>
<path d="M1073.74 934.996V968.313C1073.74 973.699 1021.02 978.065 956.006 978.065C890.987 978.065 838.271 973.699 838.271 968.313V934.996H1073.74Z" fill="#E59F39"/>
<path d="M988.538 977.667V934.996H1073.73V968.313C1073.73 972.764 1037.75 976.501 988.538 977.667Z" fill="#EAB054"/>
<path d="M984.572 977.757C975.426 977.945 965.86 978.048 956.009 978.048C941.329 978.048 927.276 977.825 914.317 977.415V934.996H984.572V977.757Z" fill="#EAB054"/>
<path d="M909.599 977.259C867.653 975.764 838.275 972.313 838.275 968.29V934.973H909.599V977.259Z" fill="#EAB054"/>
<path d="M956.009 944.386C1021.03 944.386 1073.74 940.022 1073.74 934.639C1073.74 929.256 1021.03 924.892 956.009 924.892C890.988 924.892 838.278 929.256 838.278 934.639C838.278 940.022 890.988 944.386 956.009 944.386Z" fill="#E59F39"/>
<path d="M956.009 941.397C1009.55 941.397 1052.96 938.372 1052.96 934.64C1052.96 930.908 1009.55 927.883 956.009 927.883C902.466 927.883 859.061 930.908 859.061 934.64C859.061 938.372 902.466 941.397 956.009 941.397Z" fill="#F7CC7F"/>
<path d="M1128.52 894.523L1121.44 922.658C1120.3 927.207 1074.84 916.358 1019.92 898.431C964.989 880.504 921.386 862.282 922.526 857.733L929.599 829.602L1128.52 894.523Z" fill="#E59F39"/>
<path d="M1047.5 907.08L1056.56 871.029L1128.53 894.522L1121.46 922.658C1120.5 926.416 1089.29 919.659 1047.5 907.08Z" fill="#EAB054"/>
<path d="M1044.12 906.063C1036.36 903.701 1028.25 901.146 1019.93 898.43C1007.53 894.38 995.704 890.314 984.845 886.401L993.841 850.564L1053.19 869.935L1044.12 906.063Z" fill="#EAB054"/>
<path d="M980.879 884.972C945.759 872.157 921.675 861.129 922.526 857.733L929.599 829.602L989.853 849.25L980.879 884.972Z" fill="#EAB054"/>
<path d="M929.675 829.303C928.532 833.847 972.135 852.069 1027.06 869.996C1081.99 887.923 1127.45 898.773 1128.59 894.224C1129.73 889.675 1086.13 871.457 1031.2 853.526C976.277 835.594 930.819 824.754 929.675 829.303Z" fill="#E59F39"/>
<path d="M947.233 835.031C946.438 838.183 982.469 852.71 1027.7 867.494C1072.93 882.277 1110.24 891.67 1111.03 888.517C1111.82 885.365 1075.8 870.838 1030.57 856.055C985.337 841.271 948.024 831.879 947.233 835.031Z" fill="#F7CC7F"/>
<path d="M1064.19 700.889L1071.72 728.866C1072.94 733.39 1029.64 752.53 975.005 771.619C920.37 790.708 875.107 802.518 873.888 797.995L866.361 770.017L1064.19 700.889Z" fill="#E59F39"/>
<path d="M1002.26 761.756L992.609 725.902L1064.21 700.889L1071.72 728.866C1072.73 732.608 1043.33 746.332 1002.26 761.756Z" fill="#EAB054"/>
<path d="M998.949 762.993C991.305 765.838 983.291 768.73 975.014 771.621C962.682 775.931 950.825 779.869 939.845 783.334L930.253 747.693L989.277 727.066L998.949 762.993Z" fill="#EAB054"/>
<path d="M935.845 784.585C900.268 795.648 874.808 801.376 873.897 797.997L866.37 770.02L926.29 749.09L935.845 784.585Z" fill="#EAB054"/>
<path d="M866.289 769.721C867.507 774.244 912.77 762.434 967.405 743.345C1022.04 724.256 1065.33 705.116 1064.12 700.592C1062.91 696.069 1017.64 707.875 963.005 726.964C908.373 746.053 865.074 765.197 866.289 769.721Z" fill="#E59F39"/>
<path d="M883.748 763.62C884.591 766.756 921.743 756.556 966.726 740.832C1011.71 725.109 1047.5 709.826 1046.65 706.691C1045.8 703.556 1008.65 713.756 963.671 729.475C918.688 745.194 882.905 760.472 883.748 763.62Z" fill="#F7CC7F"/>
<path d="M418.685 1049C418.685 1049 421.593 1066.59 421.597 1066.63C421.762 1068.92 421.698 1074.72 422.133 1076.72C423.768 1084.25 451.541 1065.96 444.25 1064.49C443.59 1064.35 438.81 1058.84 437.716 1056.51C435.812 1052.45 434.057 1044.89 434.057 1044.89L418.685 1049Z" fill="#F7A491"/>
<path d="M442.879 1063.39C442.879 1063.39 435.708 1065.41 432.061 1065.83C428.414 1066.24 423.728 1059.78 421.112 1061.01C418.233 1062.35 416.662 1082.84 416.662 1082.84C416.662 1082.84 462.473 1085.22 473.303 1081.81C477.591 1080.46 457.135 1069.61 442.879 1063.39Z" fill="#F47458"/>
<path d="M482.564 1048.2C482.564 1048.2 485.473 1065.79 485.477 1065.83C485.638 1068.12 485.578 1073.91 486.013 1075.92C487.647 1083.44 514.911 1066.36 507.623 1064.89C506.964 1064.76 502.694 1058.05 501.6 1055.71C499.695 1051.65 497.945 1044.08 497.945 1044.08L482.564 1048.2Z" fill="#F7A491"/>
<path d="M506.053 1063.39C506.053 1063.39 498.882 1065.41 495.235 1065.83C491.588 1066.24 486.902 1059.78 484.285 1061.01C481.407 1062.35 479.836 1082.84 479.836 1082.84C479.836 1082.84 525.647 1085.22 536.476 1081.81C540.765 1080.46 520.309 1069.61 506.053 1063.39Z" fill="#F47458"/>
<path d="M323.729 872.055L407.066 850.028C407.066 850.028 444.443 838.768 453.466 851.984C462.489 865.2 500.795 1047.61 500.795 1047.61C500.795 1047.61 481.036 1049.57 479.747 1048.59L433.49 955.049C429.09 946.15 426.194 936.389 424.954 926.272L421.674 899.482L387.754 910.724C387.754 910.724 348.664 920.514 332.767 909.259C316.869 898.004 323.729 872.055 323.729 872.055Z" fill="#0E2E35"/>
<path d="M355.731 708.332C357.047 708.392 360.653 709.763 365.927 721.086C372.675 735.541 382.511 779.216 382.511 779.216L353.122 791.654L349.347 782.539L343.144 712.351C343.144 712.351 355.364 708.315 355.731 708.332Z" fill="#EAB054"/>
<path d="M316.883 702.037C325.287 702.037 346.08 704.835 355.729 708.337C355.729 708.337 362.821 777.534 349.356 830.115C346.357 841.887 351.849 878.907 351.849 878.907L264.771 877.626C264.771 877.626 275.086 788.123 271.199 773.664C267.312 759.205 267.215 708.79 267.215 708.79C267.215 708.79 267.811 708.683 286.778 704.946C296.733 703.105 306.798 702.132 316.883 702.037V702.037Z" fill="#F7CC7F"/>
<path d="M266.267 716.478C274.409 713.01 278.394 796.319 279.488 830.61C293.909 832.182 319.039 830.61 325.295 830.089C328.238 829.837 335.042 827.013 337.95 826.578C340.949 826.151 343.671 825.898 345.144 826.189C345.684 826.296 360.712 833.275 362.012 834.809C363.609 836.705 367.92 841.493 367.189 843.565C366.458 845.637 358.901 837.794 358.901 837.794L355.205 835.441C359.808 840.566 368.58 847.268 367.316 849.716C366.053 852.163 358.17 845.282 352.529 840.631C357.368 845.594 363.377 854.478 361.994 855.862C360.749 857.105 353.908 846.824 346.602 843.86C343.892 842.762 341.193 845.803 339.064 846.171C337.497 846.44 335.079 847.025 333.546 846.521L326.206 845.714C324.166 845.864 322.139 846.199 320.145 846.717C316.985 847.482 311.801 848.285 307.775 849.4C284.601 855.832 276.872 858.797 269.776 858.797C248.27 858.81 247.026 724.688 266.267 716.478Z" fill="#F7A491"/>
<path d="M250.814 794.704C249.288 759.58 249.513 716.29 266.85 708.904C273.691 705.987 285.75 723.513 283.584 795.417C274.328 796.284 260.74 796.985 250.814 794.704Z" fill="#EAB054"/>
<path d="M443.929 773.242L361.889 779.345C360.827 779.424 359.81 779.861 358.967 780.601C358.124 781.34 357.493 782.348 357.154 783.497L335.919 855.581L290.689 858.951C290.388 858.973 290.094 859.062 289.824 859.214C289.553 859.365 289.312 859.576 289.113 859.834C288.914 860.091 288.762 860.392 288.665 860.717C288.568 861.042 288.529 861.385 288.548 861.728V861.728C288.568 862.07 288.647 862.405 288.78 862.713C288.913 863.021 289.099 863.296 289.325 863.522C289.552 863.748 289.816 863.921 290.101 864.031C290.386 864.141 290.688 864.186 290.989 864.162L419.714 854.582C421.45 854.458 423.118 853.764 424.515 852.583C425.912 851.402 426.979 849.785 427.586 847.927L449.327 781.468C449.64 780.51 449.738 779.478 449.61 778.467C449.483 777.455 449.135 776.496 448.597 775.677C448.06 774.858 447.351 774.207 446.536 773.781C445.72 773.355 444.824 773.17 443.929 773.242Z" fill="#F47458"/>
<path d="M403.047 817.783C402.885 820.999 400.749 823.476 398.275 823.314C395.801 823.152 393.93 820.414 394.095 817.198C394.26 813.981 396.393 811.5 398.867 811.645C401.341 811.79 403.212 814.566 403.047 817.783Z" fill="white"/>
<path d="M264.801 875.343L355.617 857.476C355.617 857.476 394.882 850.642 403.905 863.883C412.928 877.125 439.141 1048.43 439.141 1048.43C439.141 1048.43 419.379 1050.39 418.09 1049.41C417.093 1048.65 393.166 991.534 382.422 965.799C379.014 957.631 376.618 948.965 375.3 940.047L371.844 916.729L360.418 921.21C340.348 929.151 318.95 931.76 297.859 928.838C289.031 927.591 280.796 925.421 275.686 921.825C259.793 910.557 264.801 875.343 264.801 875.343Z" fill="#184655"/>
<path d="M320.31 689.41L322.079 704.36C322.079 704.36 326.038 725.888 320.955 730.04C315.872 734.192 299.288 703.741 299.288 703.741L301.039 665.875L320.31 689.41Z" fill="#F7A491"/>
<path d="M300.464 678.146C304.67 691.063 314.708 699.003 321.808 702.066L320.309 689.393L301.03 665.857L300.464 678.146Z" fill="#F47458"/>
<path d="M319.264 624.668C330.06 622.69 339.742 632.548 339.472 644.82C339.338 651.238 338.845 657.64 337.996 663.986C335.649 681.238 325.284 696.427 318.432 695.073C311.58 693.719 294.336 678.842 297.373 654.286C299.247 639.131 307.936 626.744 319.264 624.668Z" fill="#F7A491"/>
<path d="M302.124 657.218C301.547 661.011 298.87 663.65 296.149 663.112C293.427 662.574 291.688 659.059 292.265 655.266C292.843 651.473 295.519 648.833 298.241 649.375C300.962 649.918 302.701 653.425 302.124 657.218Z" fill="#F7A491"/>
<path d="M298.241 649.375C298.241 649.375 306.529 651.711 309.603 645.659C312.677 639.606 323.671 626.548 337.65 631.965C351.628 637.381 325.351 618.796 324.234 618.796C323.116 618.796 309.697 618.693 309.697 618.693C309.697 618.693 299.354 628.351 298.98 629.415C298.605 630.478 295.628 642.049 295.628 642.049L298.241 649.375Z" fill="#0E2E35"/>
<path d="M704.25 1083.63H910.498V998.092H704.25V1083.63Z" fill="#50BFA5"/>
<path d="M704.25 1021.56H910.498V1010.56H704.25V1021.56Z" fill="#96D9C9"/>
<path d="M704.25 1043.06H910.498V1032.05H704.25V1043.06Z" fill="#96D9C9"/>
<path d="M704.25 1064.54H910.498V1053.54H704.25V1064.54Z" fill="#96D9C9"/>
<path d="M704.25 1083.63H910.498V1072.63H704.25V1083.63Z" fill="#96D9C9"/>
<path d="M781.024 1083.63H823.919V998.092H781.024V1083.63Z" fill="#F7CC7F"/>
<path d="M907.994 1083.63H939.141V998.092H907.994V1083.63Z" fill="#3C8F7C"/>
<path d="M1139.7 1082.41H0V1089.82H1139.7V1082.41Z" fill="#0E2E35"/>
<path d="M441.031 636.83L442.482 657.106L452.813 643.865L486.227 612.684L457.738 622.914C457.738 622.914 443.711 630.679 443.067 631.704C442.422 632.729 441.031 636.83 441.031 636.83Z" fill="#50BFA5"/>
<path d="M425.892 628.124L486.239 612.657L441.032 636.829L425.892 628.124Z" fill="#96D9C9"/>
<path d="M464.242 651.839L445.638 641.263L486.238 612.657L464.242 651.839Z" fill="#96D9C9"/>
<path d="M433.988 648.084C435.558 647.389 437.193 646.9 438.861 646.628L438.722 645.154C436.949 645.439 435.211 645.956 433.542 646.696L433.988 648.084Z" fill="#3C8F7C"/>
<path d="M404.206 767.872C406.602 765.389 408.793 762.661 410.751 759.722L411.786 760.61C409.782 763.625 407.539 766.421 405.083 768.965L404.206 767.872ZM415.774 750.29C416.411 748.766 417 747.177 417.517 745.566C418.106 743.747 418.642 741.842 419.065 739.907L420.325 740.274C419.875 742.256 419.343 744.208 418.739 746.079C418.207 747.732 417.615 749.364 416.947 750.927L415.774 750.29ZM421.022 717.888L422.323 717.853C422.409 721.618 422.302 725.384 422 729.134L420.707 728.993C421.005 725.302 421.112 721.593 421.026 717.888H421.022ZM419.174 695.676L420.46 695.467C421.003 699.803 421.393 703.344 421.682 706.615L420.389 706.765C420.104 703.519 419.717 699.995 419.178 695.681L419.174 695.676ZM417.716 684.52C417.214 680.8 417.049 677.031 417.225 673.273L418.522 673.367C418.352 677.021 418.513 680.685 419.002 684.302V684.387L417.716 684.588V684.52ZM419.35 662.142C420.615 658.567 422.541 655.345 424.995 652.693L425.888 653.77C423.569 656.277 421.75 659.323 420.553 662.701L419.35 662.142Z" fill="#3C8F7C"/>
</svg>
