<svg width="158" height="49" viewBox="0 0 158 49" fill="none" xmlns="http://www.w3.org/2000/svg">
<path d="M24 48.64C37.2548 48.64 48 37.7516 48 24.32C48 10.8884 37.2548 0 24 0C10.7452 0 0 10.8884 0 24.32C0 37.7516 10.7452 48.64 24 48.64Z" fill="#FF0027"/>
<path d="M9.72544 26.1507L11.9624 16.9678C12.1592 16.202 12.6055 15.5259 13.2291 15.0493C13.8526 14.5728 14.6167 14.3236 15.3974 14.3423H26.4554L25.5624 17.9802H16.0284C15.9288 17.9836 15.8328 18.0191 15.7544 18.0815C15.6603 18.1522 15.5903 18.2511 15.5544 18.3642L13.6934 26.0331C13.6803 26.1018 13.6832 26.1726 13.7018 26.24C13.7203 26.3073 13.7541 26.3694 13.8004 26.4212C13.8459 26.4748 13.9027 26.5175 13.9665 26.5461C14.0304 26.5746 14.0997 26.5884 14.1694 26.5864L23.4874 26.5986C23.2174 27.7051 22.9194 28.9137 22.5934 30.2243H13.1334C12.6279 30.2378 12.1257 30.1362 11.664 29.927C11.2024 29.7177 10.7929 29.4062 10.4659 29.0152C10.1388 28.6243 9.90251 28.164 9.77436 27.6682C9.64621 27.1724 9.62949 26.6539 9.72544 26.1507V26.1507Z" fill="white"/>
<path d="M26.3038 37.0304L29.3318 24.763H24.2168L25.0768 21.1484H38.7708L37.8988 24.763H32.9448L29.9628 37.0304H26.3038Z" fill="white"/>
<path d="M69.079 18.744C69.1963 18.744 69.299 18.7917 69.387 18.887L70.234 19.8C69.5887 20.548 68.804 21.131 67.88 21.549C66.9633 21.967 65.8523 22.176 64.547 22.176C63.4177 22.176 62.391 21.9817 61.467 21.593C60.543 21.197 59.7547 20.647 59.102 19.943C58.4493 19.2317 57.9433 18.381 57.584 17.391C57.2247 16.401 57.045 15.312 57.045 14.124C57.045 12.936 57.232 11.847 57.606 10.857C57.98 9.867 58.5043 9.01633 59.179 8.305C59.861 7.59367 60.675 7.04367 61.621 6.655C62.567 6.259 63.612 6.061 64.756 6.061C65.878 6.061 66.868 6.24067 67.726 6.6C68.584 6.95933 69.3393 7.447 69.992 8.063L69.288 9.042C69.244 9.11533 69.1853 9.17767 69.112 9.229C69.046 9.273 68.9543 9.295 68.837 9.295C68.705 9.295 68.5437 9.22533 68.353 9.086C68.1623 8.93933 67.913 8.778 67.605 8.602C67.297 8.426 66.912 8.26833 66.45 8.129C65.988 7.98233 65.4197 7.909 64.745 7.909C63.931 7.909 63.1867 8.052 62.512 8.338C61.8373 8.61667 61.2543 9.02367 60.763 9.559C60.279 10.0943 59.9013 10.747 59.63 11.517C59.3587 12.287 59.223 13.156 59.223 14.124C59.223 15.1067 59.3623 15.983 59.641 16.753C59.927 17.523 60.312 18.1757 60.796 18.711C61.2873 19.239 61.863 19.6423 62.523 19.921C63.1903 20.1997 63.909 20.339 64.679 20.339C65.1483 20.339 65.57 20.3133 65.944 20.262C66.3253 20.2033 66.6737 20.1153 66.989 19.998C67.3117 19.8807 67.6087 19.734 67.88 19.558C68.1587 19.3747 68.4337 19.1583 68.705 18.909C68.8297 18.799 68.9543 18.744 69.079 18.744ZM82.4323 20.262L82.4213 22H72.7083V6.237H82.4213V7.975H74.8423V13.211H80.9803V14.883H74.8423V20.262H82.4323ZM94.3486 20.207V22H85.4056V6.237H87.5286V20.207H94.3486ZM106.43 20.262L106.419 22H96.7064V6.237H106.419V7.975H98.8404V13.211H104.978V14.883H98.8404V20.262H106.43ZM114.937 20.306C115.545 20.306 116.07 20.2363 116.51 20.097C116.95 19.9577 117.309 19.7633 117.588 19.514C117.874 19.2573 118.083 18.9567 118.215 18.612C118.347 18.26 118.413 17.875 118.413 17.457C118.413 16.643 118.123 16.0013 117.544 15.532C116.964 15.0553 116.095 14.817 114.937 14.817H111.527V20.306H114.937ZM111.527 7.92V13.299H114.343C114.944 13.299 115.465 13.233 115.905 13.101C116.352 12.969 116.719 12.7857 117.005 12.551C117.298 12.3163 117.514 12.034 117.654 11.704C117.793 11.3667 117.863 11 117.863 10.604C117.863 9.67267 117.584 8.99433 117.027 8.569C116.469 8.13633 115.604 7.92 114.431 7.92H111.527ZM114.431 6.237C115.399 6.237 116.231 6.33233 116.928 6.523C117.632 6.71367 118.207 6.985 118.655 7.337C119.109 7.689 119.443 8.12167 119.656 8.635C119.868 9.141 119.975 9.713 119.975 10.351C119.975 10.7397 119.912 11.1137 119.788 11.473C119.67 11.825 119.491 12.155 119.249 12.463C119.007 12.771 118.699 13.0497 118.325 13.299C117.958 13.541 117.525 13.739 117.027 13.893C118.185 14.113 119.054 14.5273 119.634 15.136C120.22 15.7373 120.514 16.5293 120.514 17.512C120.514 18.1793 120.389 18.788 120.14 19.338C119.898 19.888 119.538 20.361 119.062 20.757C118.592 21.153 118.013 21.461 117.324 21.681C116.634 21.8937 115.85 22 114.97 22H109.404V6.237H114.431ZM131.782 16.148L129.307 9.735C129.234 9.54433 129.157 9.32433 129.076 9.075C128.996 8.81833 128.919 8.547 128.845 8.261C128.691 8.855 128.534 9.35 128.372 9.746L125.897 16.148H131.782ZM136.226 22H134.576C134.386 22 134.232 21.9523 134.114 21.857C133.997 21.7617 133.909 21.6407 133.85 21.494L132.376 17.688H125.303L123.829 21.494C123.785 21.626 123.701 21.7433 123.576 21.846C123.452 21.9487 123.298 22 123.114 22H121.464L127.767 6.237H129.923L136.226 22ZM147.243 20.207V22H138.3V6.237H140.423V20.207H147.243Z" fill="#626161"/>
<path d="M67.064 34.4967H63.816V43.3867H62.465V34.4967H59.21V33.3557H67.064V34.4967ZM71.2955 39.0677C71.2955 38.7784 71.2535 38.5147 71.1695 38.2767C71.0902 38.0341 70.9712 37.8264 70.8125 37.6537C70.6585 37.4764 70.4695 37.3411 70.2455 37.2477C70.0215 37.1497 69.7672 37.1007 69.4825 37.1007C68.8852 37.1007 68.4115 37.2757 68.0615 37.6257C67.7162 37.9711 67.5015 38.4517 67.4175 39.0677H71.2955ZM72.3035 42.3927C72.1495 42.5794 71.9652 42.7427 71.7505 42.8827C71.5358 43.0181 71.3048 43.1301 71.0575 43.2187C70.8148 43.3074 70.5628 43.3727 70.3015 43.4147C70.0402 43.4614 69.7812 43.4847 69.5245 43.4847C69.0345 43.4847 68.5818 43.4031 68.1665 43.2397C67.7558 43.0717 67.3988 42.8291 67.0955 42.5117C66.7968 42.1897 66.5635 41.7931 66.3955 41.3217C66.2275 40.8504 66.1435 40.3091 66.1435 39.6977C66.1435 39.2031 66.2182 38.7411 66.3675 38.3117C66.5215 37.8824 66.7408 37.5114 67.0255 37.1987C67.3102 36.8814 67.6578 36.6341 68.0685 36.4567C68.4792 36.2747 68.9412 36.1837 69.4545 36.1837C69.8792 36.1837 70.2712 36.2561 70.6305 36.4007C70.9945 36.5407 71.3072 36.7461 71.5685 37.0167C71.8345 37.2827 72.0422 37.6141 72.1915 38.0107C72.3408 38.4027 72.4155 38.8507 72.4155 39.3547C72.4155 39.5507 72.3945 39.6814 72.3525 39.7467C72.3105 39.8121 72.2312 39.8447 72.1145 39.8447H67.3755C67.3895 40.2927 67.4502 40.6824 67.5575 41.0137C67.6695 41.3451 67.8235 41.6227 68.0195 41.8467C68.2155 42.0661 68.4488 42.2317 68.7195 42.3437C68.9902 42.4511 69.2935 42.5047 69.6295 42.5047C69.9422 42.5047 70.2105 42.4697 70.4345 42.3997C70.6632 42.3251 70.8592 42.2457 71.0225 42.1617C71.1858 42.0777 71.3212 42.0007 71.4285 41.9307C71.5405 41.8561 71.6362 41.8187 71.7155 41.8187C71.8182 41.8187 71.8975 41.8584 71.9535 41.9377L72.3035 42.3927ZM78.881 37.5557C78.8437 37.6071 78.8063 37.6467 78.769 37.6747C78.7317 37.7027 78.6803 37.7167 78.615 37.7167C78.545 37.7167 78.468 37.6887 78.384 37.6327C78.3 37.5721 78.195 37.5067 78.069 37.4367C77.9477 37.3667 77.796 37.3037 77.614 37.2477C77.4367 37.1871 77.2173 37.1567 76.956 37.1567C76.606 37.1567 76.298 37.2197 76.032 37.3457C75.766 37.4671 75.542 37.6444 75.36 37.8777C75.1827 38.1111 75.0473 38.3934 74.954 38.7247C74.8653 39.0561 74.821 39.4271 74.821 39.8377C74.821 40.2671 74.87 40.6497 74.968 40.9857C75.066 41.3171 75.2037 41.5971 75.381 41.8257C75.563 42.0497 75.78 42.2224 76.032 42.3437C76.2887 42.4604 76.5757 42.5187 76.893 42.5187C77.1963 42.5187 77.446 42.4837 77.642 42.4137C77.838 42.3391 77.999 42.2574 78.125 42.1687C78.2557 42.0801 78.363 42.0007 78.447 41.9307C78.5357 41.8561 78.622 41.8187 78.706 41.8187C78.8087 41.8187 78.888 41.8584 78.944 41.9377L79.294 42.3927C79.14 42.5841 78.965 42.7474 78.769 42.8827C78.573 43.0181 78.3607 43.1324 78.132 43.2257C77.908 43.3144 77.6723 43.3797 77.425 43.4217C77.1777 43.4637 76.9257 43.4847 76.669 43.4847C76.2257 43.4847 75.8127 43.4031 75.43 43.2397C75.052 43.0764 74.723 42.8407 74.443 42.5327C74.163 42.2201 73.9437 41.8374 73.785 41.3847C73.6263 40.9321 73.547 40.4164 73.547 39.8377C73.547 39.3104 73.6193 38.8227 73.764 38.3747C73.9133 37.9267 74.128 37.5417 74.408 37.2197C74.6927 36.8931 75.0403 36.6387 75.451 36.4567C75.8663 36.2747 76.3423 36.1837 76.879 36.1837C77.3783 36.1837 77.817 36.2654 78.195 36.4287C78.5777 36.5874 78.916 36.8137 79.21 37.1077L78.881 37.5557ZM81.8845 37.2407C82.1879 36.9187 82.5239 36.6621 82.8925 36.4707C83.2612 36.2794 83.6859 36.1837 84.1665 36.1837C84.5539 36.1837 84.8945 36.2491 85.1885 36.3797C85.4872 36.5057 85.7345 36.6877 85.9305 36.9257C86.1312 37.1591 86.2829 37.4414 86.3855 37.7727C86.4882 38.1041 86.5395 38.4704 86.5395 38.8717V43.3867H85.2865V38.8717C85.2865 38.3351 85.1629 37.9197 84.9155 37.6257C84.6729 37.3271 84.3019 37.1777 83.8025 37.1777C83.4339 37.1777 83.0885 37.2664 82.7665 37.4437C82.4492 37.6211 82.1552 37.8614 81.8845 38.1647V43.3867H80.6315V33.0757H81.8845V37.2407ZM89.6142 37.3247C89.7682 37.1521 89.9315 36.9957 90.1042 36.8557C90.2768 36.7157 90.4588 36.5967 90.6502 36.4987C90.8462 36.3961 91.0515 36.3191 91.2662 36.2677C91.4855 36.2117 91.7212 36.1837 91.9732 36.1837C92.3605 36.1837 92.7012 36.2491 92.9952 36.3797C93.2938 36.5057 93.5412 36.6877 93.7372 36.9257C93.9378 37.1591 94.0895 37.4414 94.1922 37.7727C94.2948 38.1041 94.3462 38.4704 94.3462 38.8717V43.3867H93.0932V38.8717C93.0932 38.3351 92.9695 37.9197 92.7222 37.6257C92.4795 37.3271 92.1085 37.1777 91.6092 37.1777C91.2405 37.1777 90.8952 37.2664 90.5732 37.4437C90.2558 37.6211 89.9618 37.8614 89.6912 38.1647V43.3867H88.4382V36.2957H89.1872C89.3645 36.2957 89.4742 36.3821 89.5162 36.5547L89.6142 37.3247ZM99.2338 36.1837C99.7518 36.1837 100.218 36.2701 100.634 36.4427C101.049 36.6154 101.404 36.8604 101.698 37.1777C101.992 37.4951 102.216 37.8801 102.37 38.3327C102.528 38.7807 102.608 39.2824 102.608 39.8377C102.608 40.3977 102.528 40.9017 102.37 41.3497C102.216 41.7977 101.992 42.1804 101.698 42.4977C101.404 42.8151 101.049 43.0601 100.634 43.2327C100.218 43.4007 99.7518 43.4847 99.2338 43.4847C98.7111 43.4847 98.2398 43.4007 97.8198 43.2327C97.4045 43.0601 97.0498 42.8151 96.7558 42.4977C96.4618 42.1804 96.2355 41.7977 96.0768 41.3497C95.9228 40.9017 95.8458 40.3977 95.8458 39.8377C95.8458 39.2824 95.9228 38.7807 96.0768 38.3327C96.2355 37.8801 96.4618 37.4951 96.7558 37.1777C97.0498 36.8604 97.4045 36.6154 97.8198 36.4427C98.2398 36.2701 98.7111 36.1837 99.2338 36.1837ZM99.2338 42.5117C99.9338 42.5117 100.456 42.2784 100.802 41.8117C101.147 41.3404 101.32 40.6847 101.32 39.8447C101.32 39.0001 101.147 38.3421 100.802 37.8707C100.456 37.3994 99.9338 37.1637 99.2338 37.1637C98.8791 37.1637 98.5688 37.2244 98.3028 37.3457C98.0415 37.4671 97.8221 37.6421 97.6448 37.8707C97.4721 38.0994 97.3415 38.3817 97.2528 38.7177C97.1688 39.0491 97.1268 39.4247 97.1268 39.8447C97.1268 40.6847 97.2995 41.3404 97.6448 41.8117C97.9948 42.2784 98.5245 42.5117 99.2338 42.5117ZM105.476 33.0757V43.3867H104.23V33.0757H105.476ZM110.486 36.1837C111.004 36.1837 111.47 36.2701 111.886 36.4427C112.301 36.6154 112.656 36.8604 112.95 37.1777C113.244 37.4951 113.468 37.8801 113.622 38.3327C113.78 38.7807 113.86 39.2824 113.86 39.8377C113.86 40.3977 113.78 40.9017 113.622 41.3497C113.468 41.7977 113.244 42.1804 112.95 42.4977C112.656 42.8151 112.301 43.0601 111.886 43.2327C111.47 43.4007 111.004 43.4847 110.486 43.4847C109.963 43.4847 109.492 43.4007 109.072 43.2327C108.656 43.0601 108.302 42.8151 108.008 42.4977C107.714 42.1804 107.487 41.7977 107.329 41.3497C107.175 40.9017 107.098 40.3977 107.098 39.8377C107.098 39.2824 107.175 38.7807 107.329 38.3327C107.487 37.8801 107.714 37.4951 108.008 37.1777C108.302 36.8604 108.656 36.6154 109.072 36.4427C109.492 36.2701 109.963 36.1837 110.486 36.1837ZM110.486 42.5117C111.186 42.5117 111.708 42.2784 112.054 41.8117C112.399 41.3404 112.572 40.6847 112.572 39.8447C112.572 39.0001 112.399 38.3421 112.054 37.8707C111.708 37.3994 111.186 37.1637 110.486 37.1637C110.131 37.1637 109.821 37.2244 109.555 37.3457C109.293 37.4671 109.074 37.6421 108.897 37.8707C108.724 38.0994 108.593 38.3817 108.505 38.7177C108.421 39.0491 108.379 39.4247 108.379 39.8447C108.379 40.6847 108.551 41.3404 108.897 41.8117C109.247 42.2784 109.776 42.5117 110.486 42.5117ZM117.87 39.9217C118.122 39.9217 118.344 39.8867 118.535 39.8167C118.726 39.7467 118.887 39.6487 119.018 39.5227C119.149 39.3967 119.247 39.2474 119.312 39.0747C119.377 38.8974 119.41 38.7037 119.41 38.4937C119.41 38.0597 119.277 37.7144 119.011 37.4577C118.75 37.2011 118.369 37.0727 117.87 37.0727C117.366 37.0727 116.981 37.2011 116.715 37.4577C116.454 37.7144 116.323 38.0597 116.323 38.4937C116.323 38.7037 116.356 38.8974 116.421 39.0747C116.491 39.2474 116.591 39.3967 116.722 39.5227C116.853 39.6487 117.014 39.7467 117.205 39.8167C117.396 39.8867 117.618 39.9217 117.87 39.9217ZM120.117 43.7717C120.117 43.5991 120.068 43.4591 119.97 43.3517C119.872 43.2444 119.739 43.1604 119.571 43.0997C119.408 43.0391 119.216 42.9971 118.997 42.9737C118.778 42.9457 118.544 42.9247 118.297 42.9107C118.054 42.8967 117.807 42.8827 117.555 42.8687C117.303 42.8547 117.06 42.8314 116.827 42.7987C116.566 42.9201 116.351 43.0741 116.183 43.2607C116.02 43.4427 115.938 43.6574 115.938 43.9047C115.938 44.0634 115.978 44.2104 116.057 44.3457C116.141 44.4857 116.267 44.6047 116.435 44.7027C116.603 44.8054 116.813 44.8847 117.065 44.9407C117.322 45.0014 117.623 45.0317 117.968 45.0317C118.304 45.0317 118.605 45.0014 118.871 44.9407C119.137 44.8801 119.361 44.7937 119.543 44.6817C119.73 44.5697 119.872 44.4367 119.97 44.2827C120.068 44.1287 120.117 43.9584 120.117 43.7717ZM121.384 36.5757V37.0377C121.384 37.1917 121.286 37.2897 121.09 37.3317L120.285 37.4367C120.444 37.7447 120.523 38.0854 120.523 38.4587C120.523 38.8041 120.455 39.1191 120.32 39.4037C120.189 39.6837 120.007 39.9241 119.774 40.1247C119.541 40.3254 119.261 40.4794 118.934 40.5867C118.607 40.6941 118.253 40.7477 117.87 40.7477C117.539 40.7477 117.226 40.7081 116.932 40.6287C116.783 40.7221 116.668 40.8224 116.589 40.9297C116.51 41.0324 116.47 41.1374 116.47 41.2447C116.47 41.4127 116.538 41.5411 116.673 41.6297C116.813 41.7137 116.995 41.7744 117.219 41.8117C117.443 41.8491 117.697 41.8724 117.982 41.8817C118.271 41.8911 118.565 41.9074 118.864 41.9307C119.167 41.9494 119.461 41.9844 119.746 42.0357C120.035 42.0871 120.292 42.1711 120.516 42.2877C120.74 42.4044 120.92 42.5654 121.055 42.7707C121.195 42.9761 121.265 43.2421 121.265 43.5687C121.265 43.8721 121.188 44.1661 121.034 44.4507C120.885 44.7354 120.668 44.9874 120.383 45.2067C120.098 45.4307 119.748 45.6081 119.333 45.7387C118.922 45.8741 118.458 45.9417 117.94 45.9417C117.422 45.9417 116.969 45.8904 116.582 45.7877C116.195 45.6851 115.873 45.5474 115.616 45.3747C115.359 45.2021 115.166 45.0014 115.035 44.7727C114.909 44.5487 114.846 44.3131 114.846 44.0657C114.846 43.7157 114.956 43.4194 115.175 43.1767C115.394 42.9341 115.695 42.7404 116.078 42.5957C115.868 42.5024 115.7 42.3787 115.574 42.2247C115.453 42.0661 115.392 41.8537 115.392 41.5877C115.392 41.4851 115.411 41.3801 115.448 41.2727C115.485 41.1607 115.541 41.0511 115.616 40.9437C115.695 40.8317 115.791 40.7267 115.903 40.6287C116.015 40.5307 116.146 40.4444 116.295 40.3697C115.945 40.1737 115.672 39.9147 115.476 39.5927C115.28 39.2661 115.182 38.8881 115.182 38.4587C115.182 38.1134 115.247 37.8007 115.378 37.5207C115.513 37.2361 115.7 36.9957 115.938 36.7997C116.176 36.5991 116.458 36.4451 116.785 36.3377C117.116 36.2304 117.478 36.1767 117.87 36.1767C118.178 36.1767 118.465 36.2117 118.731 36.2817C118.997 36.3471 119.24 36.4451 119.459 36.5757H121.384ZM123.989 36.2957V43.3867H122.743V36.2957H123.989ZM124.255 34.0697C124.255 34.1911 124.229 34.3054 124.178 34.4127C124.131 34.5154 124.066 34.6087 123.982 34.6927C123.902 34.7721 123.807 34.8351 123.695 34.8817C123.587 34.9284 123.473 34.9517 123.352 34.9517C123.23 34.9517 123.116 34.9284 123.009 34.8817C122.906 34.8351 122.815 34.7721 122.736 34.6927C122.656 34.6087 122.593 34.5154 122.547 34.4127C122.5 34.3054 122.477 34.1911 122.477 34.0697C122.477 33.9484 122.5 33.8341 122.547 33.7267C122.593 33.6147 122.656 33.5191 122.736 33.4397C122.815 33.3557 122.906 33.2904 123.009 33.2437C123.116 33.1971 123.23 33.1737 123.352 33.1737C123.473 33.1737 123.587 33.1971 123.695 33.2437C123.807 33.2904 123.902 33.3557 123.982 33.4397C124.066 33.5191 124.131 33.6147 124.178 33.7267C124.229 33.8341 124.255 33.9484 124.255 34.0697ZM130.782 39.0677C130.782 38.7784 130.74 38.5147 130.656 38.2767C130.576 38.0341 130.457 37.8264 130.299 37.6537C130.145 37.4764 129.956 37.3411 129.732 37.2477C129.508 37.1497 129.253 37.1007 128.969 37.1007C128.371 37.1007 127.898 37.2757 127.548 37.6257C127.202 37.9711 126.988 38.4517 126.904 39.0677H130.782ZM131.79 42.3927C131.636 42.5794 131.451 42.7427 131.237 42.8827C131.022 43.0181 130.791 43.1301 130.544 43.2187C130.301 43.3074 130.049 43.3727 129.788 43.4147C129.526 43.4614 129.267 43.4847 129.011 43.4847C128.521 43.4847 128.068 43.4031 127.653 43.2397C127.242 43.0717 126.885 42.8291 126.582 42.5117C126.283 42.1897 126.05 41.7931 125.882 41.3217C125.714 40.8504 125.63 40.3091 125.63 39.6977C125.63 39.2031 125.704 38.7411 125.854 38.3117C126.008 37.8824 126.227 37.5114 126.512 37.1987C126.796 36.8814 127.144 36.6341 127.555 36.4567C127.965 36.2747 128.427 36.1837 128.941 36.1837C129.365 36.1837 129.757 36.2561 130.117 36.4007C130.481 36.5407 130.793 36.7461 131.055 37.0167C131.321 37.2827 131.528 37.6141 131.678 38.0107C131.827 38.4027 131.902 38.8507 131.902 39.3547C131.902 39.5507 131.881 39.6814 131.839 39.7467C131.797 39.8121 131.717 39.8447 131.601 39.8447H126.862C126.876 40.2927 126.936 40.6824 127.044 41.0137C127.156 41.3451 127.31 41.6227 127.506 41.8467C127.702 42.0661 127.935 42.2317 128.206 42.3437C128.476 42.4511 128.78 42.5047 129.116 42.5047C129.428 42.5047 129.697 42.4697 129.921 42.3997C130.149 42.3251 130.345 42.2457 130.509 42.1617C130.672 42.0777 130.807 42.0007 130.915 41.9307C131.027 41.8561 131.122 41.8187 131.202 41.8187C131.304 41.8187 131.384 41.8584 131.44 41.9377L131.79 42.3927ZM137.562 37.4647C137.506 37.5674 137.42 37.6187 137.303 37.6187C137.233 37.6187 137.154 37.5931 137.065 37.5417C136.977 37.4904 136.867 37.4344 136.736 37.3737C136.61 37.3084 136.459 37.2501 136.281 37.1987C136.104 37.1427 135.894 37.1147 135.651 37.1147C135.441 37.1147 135.252 37.1427 135.084 37.1987C134.916 37.2501 134.772 37.3224 134.65 37.4157C134.534 37.5091 134.443 37.6187 134.377 37.7447C134.317 37.8661 134.286 37.9991 134.286 38.1437C134.286 38.3257 134.338 38.4774 134.44 38.5987C134.548 38.7201 134.688 38.8251 134.86 38.9137C135.033 39.0024 135.229 39.0817 135.448 39.1517C135.668 39.2171 135.892 39.2894 136.12 39.3687C136.354 39.4434 136.58 39.5274 136.799 39.6207C137.019 39.7141 137.215 39.8307 137.387 39.9707C137.56 40.1107 137.698 40.2834 137.8 40.4887C137.908 40.6894 137.961 40.9321 137.961 41.2167C137.961 41.5434 137.903 41.8467 137.786 42.1267C137.67 42.4021 137.497 42.6424 137.268 42.8477C137.04 43.0484 136.76 43.2071 136.428 43.3237C136.097 43.4404 135.714 43.4987 135.28 43.4987C134.786 43.4987 134.338 43.4194 133.936 43.2607C133.535 43.0974 133.194 42.8897 132.914 42.6377L133.208 42.1617C133.246 42.1011 133.29 42.0544 133.341 42.0217C133.393 41.9891 133.458 41.9727 133.537 41.9727C133.621 41.9727 133.71 42.0054 133.803 42.0707C133.897 42.1361 134.009 42.2084 134.139 42.2877C134.275 42.3671 134.438 42.4394 134.629 42.5047C134.821 42.5701 135.059 42.6027 135.343 42.6027C135.586 42.6027 135.798 42.5724 135.98 42.5117C136.162 42.4464 136.314 42.3601 136.435 42.2527C136.557 42.1454 136.645 42.0217 136.701 41.8817C136.762 41.7417 136.792 41.5924 136.792 41.4337C136.792 41.2377 136.739 41.0767 136.631 40.9507C136.529 40.8201 136.391 40.7104 136.218 40.6217C136.046 40.5284 135.847 40.4491 135.623 40.3837C135.404 40.3137 135.178 40.2414 134.944 40.1667C134.716 40.0921 134.489 40.0081 134.265 39.9147C134.046 39.8167 133.85 39.6954 133.677 39.5507C133.505 39.4061 133.365 39.2287 133.257 39.0187C133.155 38.8041 133.103 38.5451 133.103 38.2417C133.103 37.9711 133.159 37.7121 133.271 37.4647C133.383 37.2127 133.547 36.9934 133.761 36.8067C133.976 36.6154 134.24 36.4637 134.552 36.3517C134.865 36.2397 135.222 36.1837 135.623 36.1837C136.09 36.1837 136.508 36.2584 136.876 36.4077C137.25 36.5524 137.572 36.7531 137.842 37.0097L137.562 37.4647Z" fill="#626161"/>
</svg>
