<?xml version="1.0" encoding="UTF-8"?>
<svg xmlns="http://www.w3.org/2000/svg" xmlns:xlink="http://www.w3.org/1999/xlink" width="1455px" height="1500px" viewBox="0 0 1455 1499" version="1.1">
<defs>
<filter id="alpha" filterUnits="objectBoundingBox" x="0%" y="0%" width="100%" height="100%">
  <feColorMatrix type="matrix" in="SourceGraphic" values="0 0 0 0 1 0 0 0 0 1 0 0 0 0 1 0 0 0 1 0"/>
</filter>
<mask id="mask0">
  <g filter="url(#alpha)">
<rect x="0" y="0" width="1455" height="1499" style="fill:rgb(0%,0%,0%);fill-opacity:0.6;stroke:none;"/>
  </g>
</mask>
<clipPath id="clip1">
  <rect x="0" y="0" width="1455" height="1499"/>
</clipPath>
<g id="surface5" clip-path="url(#clip1)">
<path style=" stroke:none;fill-rule:nonzero;fill:rgb(60.784314%,75.686275%,97.647059%);fill-opacity:1;" d="M 1099.007812 538.363281 L 1003.128906 538.363281 L 1003.128906 1383.597656 L 1099.007812 1383.597656 Z M 1099.007812 538.363281 "/>
</g>
<mask id="mask1">
  <g filter="url(#alpha)">
<rect x="0" y="0" width="1455" height="1499" style="fill:rgb(0%,0%,0%);fill-opacity:0.6;stroke:none;"/>
  </g>
</mask>
<clipPath id="clip2">
  <rect x="0" y="0" width="1455" height="1499"/>
</clipPath>
<g id="surface8" clip-path="url(#clip2)">
<path style=" stroke:none;fill-rule:nonzero;fill:rgb(60.784314%,75.686275%,97.647059%);fill-opacity:1;" d="M 965.113281 796.183594 L 869.234375 796.183594 L 869.234375 1383.597656 L 965.113281 1383.597656 Z M 965.113281 796.183594 "/>
</g>
<mask id="mask2">
  <g filter="url(#alpha)">
<rect x="0" y="0" width="1455" height="1499" style="fill:rgb(0%,0%,0%);fill-opacity:0.6;stroke:none;"/>
  </g>
</mask>
<clipPath id="clip3">
  <rect x="0" y="0" width="1455" height="1499"/>
</clipPath>
<g id="surface11" clip-path="url(#clip3)">
<path style=" stroke:none;fill-rule:nonzero;fill:rgb(60.784314%,75.686275%,97.647059%);fill-opacity:1;" d="M 1234.835938 721.488281 L 1138.957031 721.488281 L 1138.957031 1383.597656 L 1234.835938 1383.597656 Z M 1234.835938 721.488281 "/>
</g>
<mask id="mask3">
  <g filter="url(#alpha)">
<rect x="0" y="0" width="1455" height="1499" style="fill:rgb(0%,0%,0%);fill-opacity:0.6;stroke:none;"/>
  </g>
</mask>
<clipPath id="clip4">
  <rect x="0" y="0" width="1455" height="1499"/>
</clipPath>
<g id="surface14" clip-path="url(#clip4)">
<path style=" stroke:none;fill-rule:nonzero;fill:rgb(60.784314%,75.686275%,97.647059%);fill-opacity:1;" d="M 831.21875 695.457031 L 735.339844 695.457031 L 735.339844 1383.609375 L 831.21875 1383.609375 Z M 831.21875 695.457031 "/>
</g>
<mask id="mask4">
  <g filter="url(#alpha)">
<rect x="0" y="0" width="1455" height="1499" style="fill:rgb(0%,0%,0%);fill-opacity:0.6;stroke:none;"/>
  </g>
</mask>
<clipPath id="clip5">
  <rect x="0" y="0" width="1455" height="1499"/>
</clipPath>
<g id="surface17" clip-path="url(#clip5)">
<path style=" stroke:none;fill-rule:nonzero;fill:rgb(60.784314%,75.686275%,97.647059%);fill-opacity:1;" d="M 697.324219 899.480469 L 601.445312 899.480469 L 601.445312 1383.597656 L 697.324219 1383.597656 Z M 697.324219 899.480469 "/>
</g>
<mask id="mask5">
  <g filter="url(#alpha)">
<rect x="0" y="0" width="1455" height="1499" style="fill:rgb(0%,0%,0%);fill-opacity:0.301961;stroke:none;"/>
  </g>
</mask>
<clipPath id="clip6">
  <rect x="0" y="0" width="1455" height="1499"/>
</clipPath>
<g id="surface20" clip-path="url(#clip6)">
<path style=" stroke:none;fill-rule:nonzero;fill:rgb(60.784314%,75.686275%,97.647059%);fill-opacity:1;" d="M 1099.007812 733.167969 L 1003.128906 733.167969 L 1003.128906 1383.597656 L 1099.007812 1383.597656 Z M 1099.007812 733.167969 "/>
</g>
<mask id="mask6">
  <g filter="url(#alpha)">
<rect x="0" y="0" width="1455" height="1499" style="fill:rgb(0%,0%,0%);fill-opacity:0.301961;stroke:none;"/>
  </g>
</mask>
<clipPath id="clip7">
  <rect x="0" y="0" width="1455" height="1499"/>
</clipPath>
<g id="surface23" clip-path="url(#clip7)">
<path style=" stroke:none;fill-rule:nonzero;fill:rgb(60.784314%,75.686275%,97.647059%);fill-opacity:1;" d="M 965.113281 931.5625 L 869.234375 931.5625 L 869.234375 1383.597656 L 965.113281 1383.597656 Z M 965.113281 931.5625 "/>
</g>
<mask id="mask7">
  <g filter="url(#alpha)">
<rect x="0" y="0" width="1455" height="1499" style="fill:rgb(0%,0%,0%);fill-opacity:0.301961;stroke:none;"/>
  </g>
</mask>
<clipPath id="clip8">
  <rect x="0" y="0" width="1455" height="1499"/>
</clipPath>
<g id="surface26" clip-path="url(#clip8)">
<path style=" stroke:none;fill-rule:nonzero;fill:rgb(60.784314%,75.686275%,97.647059%);fill-opacity:1;" d="M 1234.835938 874.089844 L 1138.957031 874.089844 L 1138.957031 1383.597656 L 1234.835938 1383.597656 Z M 1234.835938 874.089844 "/>
</g>
<mask id="mask8">
  <g filter="url(#alpha)">
<rect x="0" y="0" width="1455" height="1499" style="fill:rgb(0%,0%,0%);fill-opacity:0.301961;stroke:none;"/>
  </g>
</mask>
<clipPath id="clip9">
  <rect x="0" y="0" width="1455" height="1499"/>
</clipPath>
<g id="surface29" clip-path="url(#clip9)">
<path style=" stroke:none;fill-rule:nonzero;fill:rgb(60.784314%,75.686275%,97.647059%);fill-opacity:1;" d="M 831.21875 854.050781 L 735.339844 854.050781 L 735.339844 1383.597656 L 831.21875 1383.597656 Z M 831.21875 854.050781 "/>
</g>
<mask id="mask9">
  <g filter="url(#alpha)">
<rect x="0" y="0" width="1455" height="1499" style="fill:rgb(0%,0%,0%);fill-opacity:0.301961;stroke:none;"/>
  </g>
</mask>
<clipPath id="clip10">
  <rect x="0" y="0" width="1455" height="1499"/>
</clipPath>
<g id="surface32" clip-path="url(#clip10)">
<path style=" stroke:none;fill-rule:nonzero;fill:rgb(60.784314%,75.686275%,97.647059%);fill-opacity:1;" d="M 697.324219 1011.058594 L 601.445312 1011.058594 L 601.445312 1383.597656 L 697.324219 1383.597656 Z M 697.324219 1011.058594 "/>
</g>
</defs>
<g id="surface1">
<path style=" stroke:none;fill-rule:nonzero;fill:rgb(88.235294%,95.686275%,95.686275%);fill-opacity:1;" d="M 127.632812 0 L 1318.433594 0 L 1318.433594 1499 L 127.632812 1499 Z M 127.632812 0 "/>
<use xlink:href="#surface5" mask="url(#mask0)"/>
<use xlink:href="#surface8" mask="url(#mask1)"/>
<use xlink:href="#surface11" mask="url(#mask2)"/>
<use xlink:href="#surface14" mask="url(#mask3)"/>
<use xlink:href="#surface17" mask="url(#mask4)"/>
<use xlink:href="#surface20" mask="url(#mask5)"/>
<use xlink:href="#surface23" mask="url(#mask6)"/>
<use xlink:href="#surface26" mask="url(#mask7)"/>
<use xlink:href="#surface29" mask="url(#mask8)"/>
<use xlink:href="#surface32" mask="url(#mask9)"/>
<path style=" stroke:none;fill-rule:nonzero;fill:rgb(31.764706%,51.372549%,74.901961%);fill-opacity:1;" d="M 1281.433594 544.832031 L 1205.03125 610.636719 L 1234.179688 612.757812 L 1051.804688 978.335938 L 950.832031 805.90625 L 807.988281 1185.394531 L 716.109375 1036.753906 L 601.589844 1221.128906 L 608.796875 1254.128906 L 716.058594 1082.273438 L 813.183594 1239.390625 L 955.5 861.289062 L 1053.476562 1028.585938 L 1255.378906 623.855469 L 1274.125 646.820312 Z M 1281.433594 544.832031 "/>
<path style=" stroke:none;fill-rule:nonzero;fill:rgb(23.529412%,56.078431%,48.627451%);fill-opacity:1;" d="M 514.242188 1139.199219 C 404.609375 1039.765625 312.5 911.152344 242.761719 760.136719 L 91.960938 898.105469 C 172.605469 1072.707031 279.121094 1221.414062 405.867188 1336.355469 C 441.996094 1270.644531 478.121094 1204.925781 514.242188 1139.199219 Z M 514.242188 1139.199219 "/>
<path style=" stroke:none;fill-rule:nonzero;fill:rgb(58.823529%,85.098039%,78.823529%);fill-opacity:1;" d="M 219.136719 796.199219 L 125.46875 883.265625 C 132.910156 899.070312 130.210938 920.355469 119.128906 931.160156 C 190.023438 1073.929688 278.871094 1197.976562 382.324219 1298.632812 C 390.789062 1284.164062 406.726562 1281.359375 418.207031 1291.945312 L 486.542969 1169.519531 C 476.015625 1159.777344 474.496094 1139.859375 482.949219 1125.410156 C 392.082031 1037.015625 314.050781 928.085938 251.804688 802.710938 C 240.738281 813.511719 225.984375 810.726562 219.136719 796.199219 Z M 219.136719 796.199219 "/>
<path style=" stroke:none;fill-rule:nonzero;fill:rgb(31.372549%,74.901961%,64.705882%);fill-opacity:1;" d="M 345.320312 1122.570312 C 368.726562 1088.164062 368.503906 1037.402344 346.425781 1007.046875 C 324.28125 976.757812 286.453125 975.335938 260.304688 1005.957031 C 234.160156 1036.574219 231.660156 1090.8125 256.550781 1124.929688 C 281.4375 1159.046875 321.960938 1156.921875 345.320312 1122.570312 Z M 345.320312 1122.570312 "/>
<path style=" stroke:none;fill-rule:nonzero;fill:rgb(23.529412%,56.078431%,48.627451%);fill-opacity:1;" d="M 343.769531 1024.929688 L 334.941406 1036.105469 C 341.980469 1050.816406 340.492188 1065.976562 332.902344 1075.886719 C 325.316406 1085.792969 316.667969 1086.785156 303.59375 1077.972656 C 294.097656 1071.863281 289.53125 1070.058594 286.644531 1073.613281 C 284.195312 1076.625 283.378906 1082.097656 288.558594 1089.566406 C 290.851562 1092.925781 293.597656 1095.851562 296.691406 1098.238281 C 300.011719 1100.78125 301.0625 1106.53125 299.015625 1110.957031 C 297.035156 1115.226562 292.851562 1116.644531 289.648438 1114.046875 C 286.492188 1111.417969 283.621094 1108.382812 281.089844 1104.996094 L 273.433594 1114.589844 C 270.769531 1110.785156 268.121094 1106.960938 265.488281 1103.113281 L 273.796875 1092.855469 C 267.101562 1078.070312 268.410156 1063.367188 276.210938 1054.042969 C 284.824219 1043.746094 294.78125 1046.910156 306.191406 1055.0625 C 314.109375 1060.6875 318.699219 1061.601562 321.980469 1057.421875 C 325.433594 1053.035156 324.3125 1046.351562 319.957031 1040.027344 C 317.199219 1036.039062 313.859375 1032.621094 310.082031 1029.925781 C 306.730469 1027.519531 305.808594 1021.621094 308.066406 1017.21875 L 308.316406 1016.734375 C 310.363281 1012.734375 314.277344 1011.382812 317.261719 1013.601562 C 321.300781 1016.671875 324.949219 1020.363281 328.09375 1024.574219 C 330.859375 1021.148438 333.625 1017.71875 336.386719 1014.28125 C 338.839844 1017.851562 341.300781 1021.402344 343.769531 1024.929688 Z M 343.769531 1024.929688 "/>
<path style=" stroke:none;fill-rule:nonzero;fill:rgb(31.372549%,74.901961%,64.705882%);fill-opacity:1;" d="M 431.691406 1211.109375 C 406.707031 1186.738281 382.648438 1160.945312 359.523438 1133.730469 L 347.644531 1151.324219 C 371.074219 1178.898438 395.46875 1205.058594 420.820312 1229.792969 Z M 431.691406 1211.109375 "/>
<path style=" stroke:none;fill-rule:nonzero;fill:rgb(23.529412%,56.078431%,48.627451%);fill-opacity:1;" d="M 491.890625 1099.109375 C 354.1875 1079.214844 219.136719 1026.738281 93.835938 944.445312 L 22.386719 1135.113281 C 167.242188 1230.265625 323.386719 1290.964844 482.605469 1313.941406 C 485.695312 1242.332031 488.789062 1170.722656 491.890625 1099.109375 Z M 491.890625 1099.109375 "/>
<path style=" stroke:none;fill-rule:nonzero;fill:rgb(58.823529%,85.098039%,78.823529%);fill-opacity:1;" d="M 88.875 985.769531 C 74.28125 1025.613281 59.683594 1065.460938 45.078125 1105.308594 C 58.304688 1113.835938 65.113281 1132.191406 60.152344 1146.722656 C 182.882812 1221.863281 313.136719 1272.476562 446.015625 1296.652344 C 447.140625 1280.628906 459.75 1269.820312 474.242188 1272.054688 C 476.476562 1227.402344 478.699219 1182.75 480.90625 1138.097656 C 467.582031 1136.039062 457.726562 1121.046875 458.851562 1105.027344 C 342.167969 1083.773438 227.769531 1039.339844 120.003906 973.363281 C 115.023438 987.882812 101.046875 993.601562 88.875 985.769531 Z M 88.875 985.769531 "/>
<path style=" stroke:none;fill-rule:nonzero;fill:rgb(31.372549%,74.901961%,64.705882%);fill-opacity:1;" d="M 338.351562 1176.855469 C 343.863281 1136.949219 321.878906 1096.785156 289.703125 1084.570312 C 257.515625 1072.457031 224.117188 1091.6875 214.589844 1130.078125 C 205.066406 1168.46875 226.222656 1212.839844 262.433594 1226.527344 C 298.644531 1240.21875 332.855469 1216.691406 338.351562 1176.855469 Z M 338.351562 1176.855469 "/>
<path style=" stroke:none;fill-rule:nonzero;fill:rgb(23.529412%,56.078431%,48.627451%);fill-opacity:1;" d="M 295.089844 1100.199219 L 292.21875 1113.824219 C 304.625 1121.691406 309.847656 1134.53125 307.527344 1146.519531 C 305.179688 1158.566406 298.140625 1163.917969 283.023438 1163.957031 C 272.171875 1164.21875 267.4375 1165.242188 266.46875 1169.632812 C 265.640625 1173.347656 267.285156 1178.125 274.988281 1181.257812 C 278.449219 1182.691406 282.078125 1183.539062 285.753906 1183.761719 C 289.730469 1183.992188 293.101562 1187.992188 293.226562 1192.601562 C 293.347656 1197.0625 290.355469 1200.4375 286.4375 1200.09375 C 282.597656 1199.71875 278.808594 1198.855469 275.136719 1197.523438 C 274.304688 1201.4375 273.472656 1205.34375 272.636719 1209.25 C 268.691406 1207.660156 264.753906 1206.054688 260.824219 1204.421875 C 261.757812 1200.214844 262.6875 1196.007812 263.617188 1191.800781 C 251.445312 1183.6875 246.292969 1171.308594 249.054688 1159.707031 C 252.089844 1146.894531 262.082031 1144.042969 275.472656 1144.371094 C 284.746094 1144.574219 289.101562 1142.808594 290.160156 1137.746094 C 291.269531 1132.40625 287.429688 1127.703125 280.941406 1125.03125 C 276.792969 1123.332031 272.429688 1122.414062 268.023438 1122.308594 C 264.082031 1122.203125 260.761719 1118.019531 260.847656 1113.304688 C 260.847656 1113.136719 260.847656 1112.960938 260.847656 1112.792969 C 260.90625 1108.515625 263.71875 1105.332031 267.257812 1105.488281 C 272.046875 1105.746094 276.785156 1106.710938 281.359375 1108.363281 C 282.277344 1104.15625 283.199219 1099.949219 284.121094 1095.738281 C 287.78125 1097.246094 291.4375 1098.734375 295.089844 1100.199219 Z M 295.089844 1100.199219 "/>
<path style=" stroke:none;fill-rule:nonzero;fill:rgb(5.490196%,18.039216%,20.784314%);fill-opacity:1;" d="M 428.660156 782.585938 C 425.3125 781.335938 422.042969 779.851562 418.859375 778.136719 C 415.265625 776.167969 410.617188 773.867188 407.679688 773.355469 C 401.496094 772.265625 390.871094 772.992188 385.003906 780.21875 C 377.695312 789.21875 364.710938 781.851562 367.328125 828.980469 C 370.289062 882.335938 396.421875 876.476562 397.058594 875.574219 C 397.695312 874.667969 420.367188 841.4375 420.367188 841.4375 C 420.367188 841.4375 428.292969 861.125 428.292969 860.402344 C 428.292969 859.675781 468.773438 797.925781 428.660156 782.585938 Z M 428.660156 782.585938 "/>
<path style=" stroke:none;fill-rule:nonzero;fill:rgb(23.529412%,56.078431%,48.627451%);fill-opacity:1;" d="M 456.203125 1134.324219 C 347.863281 1183.078125 228.324219 1205.363281 103.882812 1200.011719 C 112.144531 1260.316406 120.402344 1320.625 128.660156 1380.929688 C 272.539062 1387.117188 410.753906 1361.347656 536.019531 1304.972656 Z M 456.203125 1134.324219 "/>
<path style=" stroke:none;fill-rule:nonzero;fill:rgb(58.823529%,85.098039%,78.823529%);fill-opacity:1;" d="M 116.933594 1234.332031 C 122.355469 1271.984375 127.777344 1309.640625 133.203125 1347.289062 C 146.265625 1347.734375 158.625 1358.769531 160.867188 1372.355469 C 280.566406 1373.351562 395.859375 1351.855469 502.417969 1308.671875 C 496.773438 1295.75 501.605469 1281.5 513.058594 1276.484375 C 496.679688 1240.878906 480.304688 1205.277344 463.933594 1169.675781 C 453.40625 1174.285156 440.171875 1167.269531 434.535156 1154.34375 C 340.964844 1192.265625 239.71875 1211.140625 134.601562 1210.261719 C 136.8125 1223.78125 128.933594 1234.734375 116.933594 1234.332031 Z M 116.933594 1234.332031 "/>
<path style=" stroke:none;fill-rule:nonzero;fill:rgb(31.372549%,74.901961%,64.705882%);fill-opacity:1;" d="M 375.667969 1266.0625 C 363.601562 1232.59375 331.402344 1211.738281 303.039062 1217.269531 C 274.707031 1222.886719 258.125 1253.339844 266.644531 1287.507812 C 275.164062 1321.671875 308.46875 1346.164062 340.363281 1339.875 C 372.253906 1333.574219 387.726562 1299.460938 375.667969 1266.0625 Z M 375.667969 1266.0625 "/>
<path style=" stroke:none;fill-rule:nonzero;fill:rgb(23.529412%,56.078431%,48.627451%);fill-opacity:1;" d="M 313.257812 1226.863281 L 316.660156 1238.730469 C 328.871094 1239.039062 337.855469 1246.554688 340.988281 1256.890625 C 344.132812 1267.316406 341.160156 1274.738281 330.160156 1281.816406 C 322.359375 1287.074219 319.324219 1290.070312 320.386719 1293.925781 C 321.277344 1297.191406 324.40625 1300.113281 331.28125 1298.949219 C 334.355469 1298.464844 337.339844 1297.417969 340.132812 1295.875 C 343.121094 1294.203125 347.1875 1295.722656 349.140625 1299.242188 C 351.019531 1302.636719 350.1875 1306.65625 347.226562 1308.210938 C 344.257812 1309.703125 341.148438 1310.800781 337.953125 1311.476562 C 338.910156 1314.898438 339.878906 1318.304688 340.859375 1321.722656 C 337.351562 1322.320312 333.832031 1322.910156 330.304688 1323.484375 C 329.289062 1319.796875 328.273438 1316.097656 327.257812 1312.410156 C 315.121094 1311.796875 306.378906 1304.613281 303.714844 1294.34375 C 300.765625 1283.015625 306.894531 1276.152344 316.785156 1270.160156 C 323.621094 1265.996094 326.085938 1262.601562 324.816406 1258.171875 C 323.472656 1253.519531 318.773438 1251.671875 312.96875 1252.621094 C 309.304688 1253.230469 305.757812 1254.558594 302.488281 1256.539062 C 299.570312 1258.296875 295.464844 1256.601562 293.613281 1252.925781 L 293.414062 1252.523438 C 291.734375 1249.179688 292.5 1245.40625 295.140625 1243.878906 C 298.757812 1241.832031 302.605469 1240.363281 306.574219 1239.519531 C 305.542969 1235.832031 304.519531 1232.144531 303.496094 1228.453125 C 306.75 1227.957031 310.003906 1227.425781 313.257812 1226.863281 Z M 313.257812 1226.863281 "/>
<path style=" stroke:none;fill-rule:nonzero;fill:rgb(31.372549%,74.901961%,64.705882%);fill-opacity:1;" d="M 467.476562 1231.875 C 441.707031 1242.277344 415.417969 1251.324219 388.613281 1259.023438 C 390.675781 1264.703125 392.75 1270.386719 394.832031 1276.0625 C 421.988281 1268.269531 448.644531 1259.09375 474.800781 1248.539062 Z M 467.476562 1231.875 "/>
<path style=" stroke:none;fill-rule:nonzero;fill:rgb(89.803922%,62.352941%,22.352941%);fill-opacity:1;" d="M 277.453125 1333.21875 L 277.453125 1377.394531 C 277.453125 1384.539062 347.410156 1390.332031 433.703125 1390.332031 C 520 1390.332031 589.960938 1384.539062 589.960938 1377.394531 L 589.960938 1333.21875 Z M 277.453125 1333.21875 "/>
<path style=" stroke:none;fill-rule:nonzero;fill:rgb(91.764706%,69.019608%,32.941176%);fill-opacity:1;" d="M 390.53125 1389.835938 L 390.53125 1333.21875 L 277.453125 1333.21875 L 277.453125 1377.394531 C 277.453125 1383.300781 325.234375 1388.277344 390.53125 1389.835938 Z M 390.53125 1389.835938 "/>
<path style=" stroke:none;fill-rule:nonzero;fill:rgb(91.764706%,69.019608%,32.941176%);fill-opacity:1;" d="M 395.792969 1389.949219 C 407.929688 1390.203125 420.628906 1390.332031 433.703125 1390.332031 C 453.183594 1390.332031 471.835938 1390.039062 489.035156 1389.503906 L 489.035156 1333.21875 L 395.792969 1333.21875 Z M 395.792969 1389.949219 "/>
<path style=" stroke:none;fill-rule:nonzero;fill:rgb(91.764706%,69.019608%,32.941176%);fill-opacity:1;" d="M 495.296875 1389.285156 C 550.964844 1387.308594 589.960938 1382.753906 589.960938 1377.394531 L 589.960938 1333.21875 L 495.296875 1333.21875 Z M 495.296875 1389.285156 "/>
<path style=" stroke:none;fill-rule:nonzero;fill:rgb(89.803922%,62.352941%,22.352941%);fill-opacity:1;" d="M 433.703125 1345.679688 C 520 1345.679688 589.957031 1339.890625 589.957031 1332.746094 C 589.957031 1325.601562 520 1319.820312 433.703125 1319.820312 C 347.410156 1319.820312 277.453125 1325.601562 277.453125 1332.746094 C 277.453125 1339.890625 347.410156 1345.679688 433.703125 1345.679688 Z M 433.703125 1345.679688 "/>
<path style=" stroke:none;fill-rule:nonzero;fill:rgb(96.862745%,80%,49.803922%);fill-opacity:1;" d="M 562.355469 1332.746094 C 562.355469 1337.707031 504.746094 1341.714844 433.683594 1341.714844 C 362.621094 1341.714844 305.015625 1337.707031 305.015625 1332.746094 C 305.015625 1327.796875 362.621094 1323.789062 433.683594 1323.789062 C 504.746094 1323.789062 562.355469 1327.808594 562.355469 1332.746094 Z M 562.355469 1332.746094 "/>
<path style=" stroke:none;fill-rule:nonzero;fill:rgb(89.803922%,62.352941%,22.352941%);fill-opacity:1;" d="M 250.71875 1286.472656 L 250.71875 1330.652344 C 250.71875 1337.785156 320.675781 1343.574219 406.96875 1343.574219 C 493.265625 1343.574219 563.226562 1337.785156 563.226562 1330.652344 L 563.226562 1286.472656 Z M 250.71875 1286.472656 "/>
<path style=" stroke:none;fill-rule:nonzero;fill:rgb(91.764706%,69.019608%,32.941176%);fill-opacity:1;" d="M 363.804688 1343.078125 L 363.804688 1286.472656 L 250.71875 1286.472656 L 250.71875 1330.652344 C 250.71875 1336.546875 298.5 1341.535156 363.804688 1343.078125 Z M 363.804688 1343.078125 "/>
<path style=" stroke:none;fill-rule:nonzero;fill:rgb(91.764706%,69.019608%,32.941176%);fill-opacity:1;" d="M 369.070312 1343.207031 C 381.207031 1343.449219 393.90625 1343.574219 406.980469 1343.574219 C 426.464844 1343.574219 445.113281 1343.28125 462.316406 1342.746094 L 462.316406 1286.472656 L 369.070312 1286.472656 Z M 369.070312 1343.207031 "/>
<path style=" stroke:none;fill-rule:nonzero;fill:rgb(91.764706%,69.019608%,32.941176%);fill-opacity:1;" d="M 468.582031 1342.53125 C 524.25 1340.550781 563.242188 1336 563.242188 1330.652344 L 563.242188 1286.472656 L 468.582031 1286.472656 Z M 468.582031 1342.53125 "/>
<path style=" stroke:none;fill-rule:nonzero;fill:rgb(89.803922%,62.352941%,22.352941%);fill-opacity:1;" d="M 406.96875 1298.9375 C 493.265625 1298.9375 563.222656 1293.144531 563.222656 1286 C 563.222656 1278.859375 493.265625 1273.070312 406.96875 1273.070312 C 320.675781 1273.070312 250.71875 1278.859375 250.71875 1286 C 250.71875 1293.144531 320.675781 1298.9375 406.96875 1298.9375 Z M 406.96875 1298.9375 "/>
<path style=" stroke:none;fill-rule:nonzero;fill:rgb(96.862745%,80%,49.803922%);fill-opacity:1;" d="M 535.640625 1286 C 535.640625 1290.953125 478.035156 1294.957031 406.945312 1294.957031 C 335.855469 1294.957031 278.273438 1290.953125 278.273438 1286 C 278.273438 1281.050781 335.882812 1277.03125 406.945312 1277.03125 C 478.003906 1277.03125 535.640625 1281.050781 535.640625 1286 Z M 535.640625 1286 "/>
<path style=" stroke:none;fill-rule:nonzero;fill:rgb(89.803922%,62.352941%,22.352941%);fill-opacity:1;" d="M 268.53125 1238.476562 L 268.53125 1282.660156 C 268.53125 1289.804688 338.488281 1295.582031 424.78125 1295.582031 C 511.078125 1295.582031 581.039062 1289.804688 581.039062 1282.660156 L 581.039062 1238.476562 Z M 268.53125 1238.476562 "/>
<path style=" stroke:none;fill-rule:nonzero;fill:rgb(91.764706%,69.019608%,32.941176%);fill-opacity:1;" d="M 381.609375 1295.085938 L 381.609375 1238.476562 L 268.53125 1238.476562 L 268.53125 1282.660156 C 268.53125 1288.554688 316.3125 1293.542969 381.609375 1295.085938 Z M 381.609375 1295.085938 "/>
<path style=" stroke:none;fill-rule:nonzero;fill:rgb(91.764706%,69.019608%,32.941176%);fill-opacity:1;" d="M 386.871094 1295.199219 C 399.007812 1295.453125 411.703125 1295.582031 424.78125 1295.582031 C 444.261719 1295.582031 462.914062 1295.289062 480.117188 1294.753906 L 480.117188 1238.476562 L 386.871094 1238.476562 Z M 386.871094 1295.199219 "/>
<path style=" stroke:none;fill-rule:nonzero;fill:rgb(91.764706%,69.019608%,32.941176%);fill-opacity:1;" d="M 486.375 1294.550781 C 542.042969 1292.558594 581.035156 1288.003906 581.035156 1282.660156 L 581.035156 1238.476562 L 486.375 1238.476562 Z M 486.375 1294.550781 "/>
<path style=" stroke:none;fill-rule:nonzero;fill:rgb(89.803922%,62.352941%,22.352941%);fill-opacity:1;" d="M 424.78125 1250.933594 C 511.078125 1250.933594 581.03125 1245.144531 581.03125 1238.003906 C 581.03125 1230.863281 511.078125 1225.070312 424.78125 1225.070312 C 338.488281 1225.070312 268.53125 1230.863281 268.53125 1238.003906 C 268.53125 1245.144531 338.488281 1250.933594 424.78125 1250.933594 Z M 424.78125 1250.933594 "/>
<path style=" stroke:none;fill-rule:nonzero;fill:rgb(96.862745%,80%,49.803922%);fill-opacity:1;" d="M 553.453125 1238.003906 C 553.453125 1242.957031 495.847656 1246.972656 424.757812 1246.972656 C 353.664062 1246.972656 296.085938 1242.957031 296.085938 1238.003906 C 296.085938 1233.050781 353.695312 1229.039062 424.757812 1229.039062 C 495.816406 1229.039062 553.453125 1233.058594 553.453125 1238.003906 Z M 553.453125 1238.003906 "/>
<path style=" stroke:none;fill-rule:nonzero;fill:rgb(89.803922%,62.352941%,22.352941%);fill-opacity:1;" d="M 250.71875 1191.140625 L 250.71875 1235.320312 C 250.71875 1242.464844 320.675781 1248.253906 406.96875 1248.253906 C 493.265625 1248.253906 563.226562 1242.464844 563.226562 1235.320312 L 563.226562 1191.140625 Z M 250.71875 1191.140625 "/>
<path style=" stroke:none;fill-rule:nonzero;fill:rgb(91.764706%,69.019608%,32.941176%);fill-opacity:1;" d="M 363.804688 1247.753906 L 363.804688 1191.140625 L 250.71875 1191.140625 L 250.71875 1235.320312 C 250.71875 1241.226562 298.5 1246.199219 363.804688 1247.753906 Z M 363.804688 1247.753906 "/>
<path style=" stroke:none;fill-rule:nonzero;fill:rgb(91.764706%,69.019608%,32.941176%);fill-opacity:1;" d="M 369.070312 1247.867188 C 381.207031 1248.117188 393.90625 1248.253906 406.980469 1248.253906 C 426.464844 1248.253906 445.113281 1247.957031 462.316406 1247.414062 L 462.316406 1191.140625 L 369.070312 1191.140625 Z M 369.070312 1247.867188 "/>
<path style=" stroke:none;fill-rule:nonzero;fill:rgb(91.764706%,69.019608%,32.941176%);fill-opacity:1;" d="M 468.582031 1247.207031 C 524.25 1245.230469 563.242188 1240.667969 563.242188 1235.320312 L 563.242188 1191.140625 L 468.582031 1191.140625 Z M 468.582031 1247.207031 "/>
<path style=" stroke:none;fill-rule:nonzero;fill:rgb(89.803922%,62.352941%,22.352941%);fill-opacity:1;" d="M 406.96875 1203.605469 C 493.265625 1203.605469 563.222656 1197.816406 563.222656 1190.671875 C 563.222656 1183.53125 493.265625 1177.742188 406.96875 1177.742188 C 320.675781 1177.742188 250.71875 1183.53125 250.71875 1190.671875 C 250.71875 1197.816406 320.675781 1203.605469 406.96875 1203.605469 Z M 406.96875 1203.605469 "/>
<path style=" stroke:none;fill-rule:nonzero;fill:rgb(96.862745%,80%,49.803922%);fill-opacity:1;" d="M 535.640625 1190.675781 C 535.640625 1195.621094 478.035156 1199.636719 406.945312 1199.636719 C 335.855469 1199.636719 278.273438 1195.621094 278.273438 1190.675781 C 278.273438 1185.726562 335.882812 1181.703125 406.945312 1181.703125 C 478.003906 1181.703125 535.640625 1185.71875 535.640625 1190.675781 Z M 535.640625 1190.675781 "/>
<path style=" stroke:none;fill-rule:nonzero;fill:rgb(89.803922%,62.352941%,22.352941%);fill-opacity:1;" d="M 1344.714844 1329.453125 L 1344.714844 1371.949219 C 1344.714844 1378.824219 1277.453125 1384.386719 1194.457031 1384.386719 C 1111.46875 1384.386719 1044.199219 1378.824219 1044.199219 1371.949219 L 1044.199219 1329.453125 Z M 1344.714844 1329.453125 "/>
<path style=" stroke:none;fill-rule:nonzero;fill:rgb(91.764706%,69.019608%,32.941176%);fill-opacity:1;" d="M 1235.988281 1383.890625 L 1235.988281 1329.453125 L 1344.726562 1329.453125 L 1344.726562 1371.949219 C 1344.726562 1377.613281 1298.765625 1382.398438 1235.988281 1383.890625 Z M 1235.988281 1383.890625 "/>
<path style=" stroke:none;fill-rule:nonzero;fill:rgb(91.764706%,69.019608%,32.941176%);fill-opacity:1;" d="M 1230.921875 1384.003906 C 1219.246094 1384.234375 1207.03125 1384.375 1194.460938 1384.375 C 1175.722656 1384.375 1157.789062 1384.09375 1141.25 1383.558594 L 1141.25 1329.453125 L 1230.921875 1329.453125 Z M 1230.921875 1384.003906 "/>
<path style=" stroke:none;fill-rule:nonzero;fill:rgb(91.764706%,69.019608%,32.941176%);fill-opacity:1;" d="M 1135.226562 1383.367188 C 1081.691406 1381.464844 1044.199219 1377.0625 1044.199219 1371.921875 L 1044.199219 1329.429688 L 1135.226562 1329.429688 Z M 1135.226562 1383.367188 "/>
<path style=" stroke:none;fill-rule:nonzero;fill:rgb(89.803922%,62.352941%,22.352941%);fill-opacity:1;" d="M 1194.457031 1341.433594 C 1277.4375 1341.433594 1344.714844 1335.859375 1344.714844 1328.996094 C 1344.714844 1322.128906 1277.4375 1316.554688 1194.457031 1316.554688 C 1111.472656 1316.554688 1044.199219 1322.128906 1044.199219 1328.996094 C 1044.199219 1335.859375 1111.472656 1341.433594 1194.457031 1341.433594 Z M 1194.457031 1341.433594 "/>
<path style=" stroke:none;fill-rule:nonzero;fill:rgb(96.862745%,80%,49.803922%);fill-opacity:1;" d="M 1070.722656 1328.996094 C 1070.722656 1333.753906 1126.117188 1337.617188 1194.457031 1337.617188 C 1262.796875 1337.617188 1318.191406 1333.753906 1318.191406 1328.996094 C 1318.191406 1324.234375 1262.796875 1320.371094 1194.457031 1320.371094 C 1126.117188 1320.371094 1070.722656 1324.234375 1070.722656 1328.996094 Z M 1070.722656 1328.996094 "/>
<path style=" stroke:none;fill-rule:nonzero;fill:rgb(89.803922%,62.352941%,22.352941%);fill-opacity:1;" d="M 1370.429688 1284.484375 L 1370.429688 1326.992188 C 1370.429688 1333.855469 1303.144531 1339.417969 1220.164062 1339.417969 C 1137.179688 1339.417969 1069.898438 1333.855469 1069.898438 1326.992188 L 1069.898438 1284.484375 Z M 1370.429688 1284.484375 "/>
<path style=" stroke:none;fill-rule:nonzero;fill:rgb(91.764706%,69.019608%,32.941176%);fill-opacity:1;" d="M 1261.6875 1338.933594 L 1261.6875 1284.484375 L 1370.417969 1284.484375 L 1370.417969 1326.992188 C 1370.417969 1332.65625 1324.496094 1337.441406 1261.6875 1338.933594 Z M 1261.6875 1338.933594 "/>
<path style=" stroke:none;fill-rule:nonzero;fill:rgb(91.764706%,69.019608%,32.941176%);fill-opacity:1;" d="M 1256.625 1339.046875 C 1244.953125 1339.277344 1232.742188 1339.40625 1220.167969 1339.40625 C 1201.433594 1339.40625 1183.496094 1339.125 1166.957031 1338.601562 L 1166.957031 1284.484375 L 1256.625 1284.484375 Z M 1256.625 1339.046875 "/>
<path style=" stroke:none;fill-rule:nonzero;fill:rgb(91.764706%,69.019608%,32.941176%);fill-opacity:1;" d="M 1160.9375 1338.410156 C 1107.398438 1336.507812 1069.902344 1332.105469 1069.902344 1326.964844 L 1069.902344 1284.457031 L 1160.9375 1284.457031 Z M 1160.9375 1338.410156 "/>
<path style=" stroke:none;fill-rule:nonzero;fill:rgb(89.803922%,62.352941%,22.352941%);fill-opacity:1;" d="M 1220.167969 1296.476562 C 1303.15625 1296.476562 1370.429688 1290.902344 1370.429688 1284.035156 C 1370.429688 1277.160156 1303.15625 1271.601562 1220.167969 1271.601562 C 1137.183594 1271.601562 1069.90625 1277.160156 1069.90625 1284.035156 C 1069.90625 1290.902344 1137.183594 1296.476562 1220.167969 1296.476562 Z M 1220.167969 1296.476562 "/>
<path style=" stroke:none;fill-rule:nonzero;fill:rgb(96.862745%,80%,49.803922%);fill-opacity:1;" d="M 1220.167969 1292.648438 C 1288.503906 1292.648438 1343.910156 1288.796875 1343.910156 1284.035156 C 1343.910156 1279.277344 1288.503906 1275.414062 1220.167969 1275.414062 C 1151.832031 1275.414062 1096.433594 1279.277344 1096.433594 1284.035156 C 1096.433594 1288.796875 1151.832031 1292.648438 1220.167969 1292.648438 Z M 1220.167969 1292.648438 "/>
<path style=" stroke:none;fill-rule:nonzero;fill:rgb(89.803922%,62.352941%,22.352941%);fill-opacity:1;" d="M 1353.304688 1238.332031 L 1353.304688 1280.835938 C 1353.304688 1287.710938 1286.027344 1293.273438 1203.039062 1293.273438 C 1120.046875 1293.273438 1052.777344 1287.710938 1052.777344 1280.835938 L 1052.777344 1238.332031 Z M 1353.304688 1238.332031 "/>
<path style=" stroke:none;fill-rule:nonzero;fill:rgb(91.764706%,69.019608%,32.941176%);fill-opacity:1;" d="M 1244.558594 1292.761719 L 1244.558594 1238.320312 L 1353.304688 1238.320312 L 1353.304688 1280.820312 C 1353.304688 1286.5 1307.34375 1291.285156 1244.558594 1292.761719 Z M 1244.558594 1292.761719 "/>
<path style=" stroke:none;fill-rule:nonzero;fill:rgb(91.764706%,69.019608%,32.941176%);fill-opacity:1;" d="M 1239.496094 1292.890625 C 1227.824219 1293.132812 1215.609375 1293.246094 1203.035156 1293.246094 C 1184.300781 1293.246094 1166.367188 1292.96875 1149.828125 1292.457031 L 1149.828125 1238.332031 L 1239.496094 1238.332031 Z M 1239.496094 1292.890625 "/>
<path style=" stroke:none;fill-rule:nonzero;fill:rgb(91.764706%,69.019608%,32.941176%);fill-opacity:1;" d="M 1143.808594 1292.253906 C 1090.269531 1290.351562 1052.777344 1285.949219 1052.777344 1280.808594 L 1052.777344 1238.304688 L 1143.808594 1238.304688 Z M 1143.808594 1292.253906 "/>
<path style=" stroke:none;fill-rule:nonzero;fill:rgb(89.803922%,62.352941%,22.352941%);fill-opacity:1;" d="M 1203.039062 1250.320312 C 1286.027344 1250.320312 1353.304688 1244.753906 1353.304688 1237.886719 C 1353.304688 1231.015625 1286.027344 1225.449219 1203.039062 1225.449219 C 1120.050781 1225.449219 1052.777344 1231.015625 1052.777344 1237.886719 C 1052.777344 1244.753906 1120.050781 1250.320312 1203.039062 1250.320312 Z M 1203.039062 1250.320312 "/>
<path style=" stroke:none;fill-rule:nonzero;fill:rgb(96.862745%,80%,49.803922%);fill-opacity:1;" d="M 1203.035156 1246.503906 C 1271.371094 1246.503906 1326.769531 1242.644531 1326.769531 1237.882812 C 1326.769531 1233.121094 1271.371094 1229.261719 1203.035156 1229.261719 C 1134.695312 1229.261719 1079.296875 1233.121094 1079.296875 1237.882812 C 1079.296875 1242.644531 1134.695312 1246.503906 1203.035156 1246.503906 Z M 1203.035156 1246.503906 "/>
<path style=" stroke:none;fill-rule:nonzero;fill:rgb(89.803922%,62.352941%,22.352941%);fill-opacity:1;" d="M 1370.429688 1192.816406 L 1370.429688 1235.320312 C 1370.429688 1242.191406 1303.144531 1247.761719 1220.164062 1247.761719 C 1137.179688 1247.761719 1069.898438 1242.191406 1069.898438 1235.320312 L 1069.898438 1192.816406 Z M 1370.429688 1192.816406 "/>
<path style=" stroke:none;fill-rule:nonzero;fill:rgb(91.764706%,69.019608%,32.941176%);fill-opacity:1;" d="M 1261.6875 1247.253906 L 1261.6875 1192.816406 L 1370.417969 1192.816406 L 1370.417969 1235.320312 C 1370.417969 1241 1324.496094 1245.765625 1261.6875 1247.253906 Z M 1261.6875 1247.253906 "/>
<path style=" stroke:none;fill-rule:nonzero;fill:rgb(91.764706%,69.019608%,32.941176%);fill-opacity:1;" d="M 1256.625 1247.367188 C 1244.953125 1247.609375 1232.742188 1247.738281 1220.167969 1247.738281 C 1201.433594 1247.738281 1183.496094 1247.453125 1166.957031 1246.933594 L 1166.957031 1192.816406 L 1256.625 1192.816406 Z M 1256.625 1247.367188 "/>
<path style=" stroke:none;fill-rule:nonzero;fill:rgb(91.764706%,69.019608%,32.941176%);fill-opacity:1;" d="M 1160.9375 1246.734375 C 1107.398438 1244.824219 1069.902344 1240.421875 1069.902344 1235.289062 L 1069.902344 1192.785156 L 1160.9375 1192.785156 Z M 1160.9375 1246.734375 "/>
<path style=" stroke:none;fill-rule:nonzero;fill:rgb(89.803922%,62.352941%,22.352941%);fill-opacity:1;" d="M 1220.167969 1204.796875 C 1303.15625 1204.796875 1370.429688 1199.226562 1370.429688 1192.359375 C 1370.429688 1185.492188 1303.15625 1179.925781 1220.167969 1179.925781 C 1137.183594 1179.925781 1069.90625 1185.492188 1069.90625 1192.359375 C 1069.90625 1199.226562 1137.183594 1204.796875 1220.167969 1204.796875 Z M 1220.167969 1204.796875 "/>
<path style=" stroke:none;fill-rule:nonzero;fill:rgb(96.862745%,80%,49.803922%);fill-opacity:1;" d="M 1220.167969 1200.980469 C 1288.503906 1200.980469 1343.910156 1197.125 1343.910156 1192.363281 C 1343.910156 1187.601562 1288.503906 1183.742188 1220.167969 1183.742188 C 1151.832031 1183.742188 1096.433594 1187.601562 1096.433594 1192.363281 C 1096.433594 1197.125 1151.832031 1200.980469 1220.167969 1200.980469 Z M 1220.167969 1200.980469 "/>
<path style=" stroke:none;fill-rule:nonzero;fill:rgb(89.803922%,62.352941%,22.352941%);fill-opacity:1;" d="M 1440.347656 1141.183594 L 1431.3125 1177.074219 C 1429.855469 1182.878906 1371.835938 1169.039062 1301.738281 1146.167969 C 1231.628906 1123.296875 1175.980469 1100.050781 1177.433594 1094.25 L 1186.460938 1058.359375 Z M 1440.347656 1141.183594 "/>
<path style=" stroke:none;fill-rule:nonzero;fill:rgb(91.764706%,69.019608%,32.941176%);fill-opacity:1;" d="M 1336.941406 1157.203125 L 1348.503906 1111.210938 L 1440.359375 1141.183594 L 1431.335938 1177.074219 C 1430.113281 1181.871094 1390.277344 1173.25 1336.941406 1157.203125 Z M 1336.941406 1157.203125 "/>
<path style=" stroke:none;fill-rule:nonzero;fill:rgb(91.764706%,69.019608%,32.941176%);fill-opacity:1;" d="M 1332.625 1155.90625 C 1322.722656 1152.890625 1312.371094 1149.632812 1301.753906 1146.167969 C 1285.925781 1141 1270.832031 1135.8125 1256.972656 1130.820312 L 1268.453125 1085.101562 L 1344.203125 1109.816406 Z M 1332.625 1155.90625 "/>
<path style=" stroke:none;fill-rule:nonzero;fill:rgb(91.764706%,69.019608%,32.941176%);fill-opacity:1;" d="M 1251.910156 1129 C 1207.085938 1112.648438 1176.347656 1098.582031 1177.433594 1094.25 L 1186.460938 1058.359375 L 1263.363281 1083.425781 Z M 1251.910156 1129 "/>
<path style=" stroke:none;fill-rule:nonzero;fill:rgb(89.803922%,62.352941%,22.352941%);fill-opacity:1;" d="M 1186.558594 1057.980469 C 1185.101562 1063.777344 1240.75 1087.023438 1310.851562 1109.894531 C 1380.960938 1132.761719 1438.980469 1146.605469 1440.4375 1140.800781 C 1441.890625 1135 1386.246094 1111.757812 1316.136719 1088.882812 C 1246.039062 1066.003906 1188.019531 1052.175781 1186.558594 1057.980469 Z M 1186.558594 1057.980469 "/>
<path style=" stroke:none;fill-rule:nonzero;fill:rgb(96.862745%,80%,49.803922%);fill-opacity:1;" d="M 1208.96875 1065.285156 C 1207.953125 1069.308594 1253.941406 1087.839844 1311.667969 1106.699219 C 1369.398438 1125.558594 1417.015625 1137.542969 1418.023438 1133.519531 C 1419.035156 1129.5 1373.058594 1110.96875 1315.332031 1092.109375 C 1257.601562 1073.246094 1209.976562 1061.265625 1208.96875 1065.285156 Z M 1208.96875 1065.285156 "/>
<path style=" stroke:none;fill-rule:nonzero;fill:rgb(89.803922%,62.352941%,22.352941%);fill-opacity:1;" d="M 1358.242188 894.15625 L 1367.851562 929.847656 C 1369.410156 935.617188 1314.144531 960.035156 1244.414062 984.390625 C 1174.683594 1008.742188 1116.914062 1023.808594 1115.355469 1018.039062 L 1105.75 982.34375 Z M 1358.242188 894.15625 "/>
<path style=" stroke:none;fill-rule:nonzero;fill:rgb(91.764706%,69.019608%,32.941176%);fill-opacity:1;" d="M 1279.199219 971.804688 L 1266.882812 926.066406 L 1358.269531 894.15625 L 1367.851562 929.847656 C 1369.140625 934.621094 1331.617188 952.128906 1279.199219 971.804688 Z M 1279.199219 971.804688 "/>
<path style=" stroke:none;fill-rule:nonzero;fill:rgb(91.764706%,69.019608%,32.941176%);fill-opacity:1;" d="M 1274.972656 973.382812 C 1265.21875 977.015625 1254.988281 980.703125 1244.425781 984.390625 C 1228.6875 989.890625 1213.554688 994.914062 1199.539062 999.335938 L 1187.296875 953.867188 L 1262.628906 927.550781 Z M 1274.972656 973.382812 "/>
<path style=" stroke:none;fill-rule:nonzero;fill:rgb(91.764706%,69.019608%,32.941176%);fill-opacity:1;" d="M 1194.433594 1000.929688 C 1149.027344 1015.042969 1116.53125 1022.351562 1115.367188 1018.039062 L 1105.761719 982.347656 L 1182.238281 955.648438 Z M 1194.433594 1000.929688 "/>
<path style=" stroke:none;fill-rule:nonzero;fill:rgb(89.803922%,62.352941%,22.352941%);fill-opacity:1;" d="M 1105.660156 981.96875 C 1107.210938 987.738281 1164.984375 972.671875 1234.714844 948.320312 C 1304.445312 923.964844 1359.699219 899.546875 1358.152344 893.777344 C 1356.609375 888.007812 1298.828125 903.066406 1229.097656 927.421875 C 1159.371094 951.773438 1104.109375 976.195312 1105.660156 981.96875 Z M 1105.660156 981.96875 "/>
<path style=" stroke:none;fill-rule:nonzero;fill:rgb(96.862745%,80%,49.803922%);fill-opacity:1;" d="M 1127.941406 974.183594 C 1129.015625 978.183594 1176.433594 965.171875 1233.847656 945.113281 C 1291.261719 925.054688 1336.941406 905.558594 1335.855469 901.558594 C 1334.769531 897.558594 1287.355469 910.570312 1229.949219 930.625 C 1172.535156 950.675781 1126.867188 970.167969 1127.941406 974.183594 Z M 1127.941406 974.183594 "/>
<path style=" stroke:none;fill-rule:nonzero;fill:rgb(96.862745%,64.313725%,56.862745%);fill-opacity:1;" d="M 534.375 1338.257812 C 534.375 1338.257812 538.085938 1360.695312 538.089844 1360.746094 C 538.300781 1363.667969 538.21875 1371.066406 538.773438 1373.621094 C 540.863281 1383.226562 576.308594 1359.894531 567.003906 1358.015625 C 566.160156 1357.839844 560.058594 1350.808594 558.664062 1347.835938 C 556.234375 1342.65625 553.992188 1333.011719 553.992188 1333.011719 Z M 534.375 1338.257812 "/>
<path style=" stroke:none;fill-rule:nonzero;fill:rgb(95.686275%,45.490196%,34.509804%);fill-opacity:1;" d="M 565.253906 1356.613281 C 565.253906 1356.613281 556.101562 1359.191406 551.445312 1359.726562 C 546.792969 1360.25 540.8125 1352.007812 537.472656 1353.578125 C 533.796875 1355.289062 531.792969 1381.425781 531.792969 1381.425781 C 531.792969 1381.425781 590.261719 1384.464844 604.085938 1380.113281 C 609.558594 1378.390625 583.449219 1364.550781 565.253906 1356.613281 Z M 565.253906 1356.613281 "/>
<path style=" stroke:none;fill-rule:nonzero;fill:rgb(96.862745%,64.313725%,56.862745%);fill-opacity:1;" d="M 615.902344 1337.234375 C 615.902344 1337.234375 619.617188 1359.675781 619.621094 1359.726562 C 619.828125 1362.648438 619.75 1370.035156 620.304688 1372.597656 C 622.390625 1382.191406 657.1875 1360.402344 647.886719 1358.527344 C 647.046875 1358.363281 641.597656 1349.800781 640.199219 1346.816406 C 637.769531 1341.636719 635.535156 1331.980469 635.535156 1331.980469 Z M 615.902344 1337.234375 "/>
<path style=" stroke:none;fill-rule:nonzero;fill:rgb(95.686275%,45.490196%,34.509804%);fill-opacity:1;" d="M 645.882812 1356.613281 C 645.882812 1356.613281 636.730469 1359.191406 632.078125 1359.726562 C 627.421875 1360.25 621.441406 1352.007812 618.101562 1353.578125 C 614.425781 1355.289062 612.421875 1381.425781 612.421875 1381.425781 C 612.421875 1381.425781 670.890625 1384.464844 684.710938 1380.113281 C 690.1875 1378.390625 664.078125 1364.550781 645.882812 1356.613281 Z M 645.882812 1356.613281 "/>
<path style=" stroke:none;fill-rule:nonzero;fill:rgb(5.490196%,18.039216%,20.784314%);fill-opacity:1;" d="M 413.179688 1112.519531 L 519.542969 1084.417969 C 519.542969 1084.417969 567.25 1070.054688 578.765625 1086.914062 C 590.28125 1103.773438 639.171875 1336.484375 639.171875 1336.484375 C 639.171875 1336.484375 613.953125 1338.984375 612.308594 1337.734375 L 553.269531 1218.398438 C 547.65625 1207.046875 543.957031 1194.59375 542.375 1181.6875 L 538.1875 1147.507812 L 494.898438 1161.851562 C 494.898438 1161.851562 445.003906 1174.339844 424.714844 1159.980469 C 404.425781 1145.625 413.179688 1112.519531 413.179688 1112.519531 Z M 413.179688 1112.519531 "/>
<path style=" stroke:none;fill-rule:nonzero;fill:rgb(91.764706%,69.019608%,32.941176%);fill-opacity:1;" d="M 454.023438 903.652344 C 455.703125 903.726562 460.308594 905.476562 467.039062 919.921875 C 475.652344 938.363281 488.203125 994.082031 488.203125 994.082031 L 450.695312 1009.949219 L 445.878906 998.320312 L 437.960938 908.777344 C 437.960938 908.777344 453.558594 903.628906 454.023438 903.652344 Z M 454.023438 903.652344 "/>
<path style=" stroke:none;fill-rule:nonzero;fill:rgb(96.862745%,80%,49.803922%);fill-opacity:1;" d="M 404.441406 895.621094 C 415.167969 895.621094 441.707031 899.191406 454.023438 903.65625 C 454.023438 903.65625 463.074219 991.933594 445.886719 1059.015625 C 442.0625 1074.03125 449.070312 1121.261719 449.070312 1121.261719 L 337.929688 1119.625 C 337.929688 1119.625 351.097656 1005.445312 346.136719 986.996094 C 341.175781 968.550781 341.050781 904.234375 341.050781 904.234375 C 341.050781 904.234375 341.8125 904.097656 366.019531 899.332031 C 378.726562 896.984375 391.570312 895.742188 404.441406 895.621094 Z M 404.441406 895.621094 "/>
<path style=" stroke:none;fill-rule:nonzero;fill:rgb(96.862745%,64.313725%,56.862745%);fill-opacity:1;" d="M 339.839844 914.042969 C 350.234375 909.617188 355.320312 1015.898438 356.714844 1059.644531 C 375.121094 1061.652344 407.195312 1059.644531 415.179688 1058.980469 C 418.933594 1058.660156 427.621094 1055.058594 431.332031 1054.503906 C 435.160156 1053.957031 438.632812 1053.636719 440.511719 1054.007812 C 441.203125 1054.144531 460.382812 1063.046875 462.042969 1065.003906 C 464.078125 1067.421875 469.582031 1073.53125 468.648438 1076.171875 C 467.714844 1078.816406 458.070312 1068.8125 458.070312 1068.8125 L 453.355469 1065.808594 C 459.230469 1072.347656 470.425781 1080.898438 468.8125 1084.019531 C 467.199219 1087.140625 457.136719 1078.363281 449.9375 1072.429688 C 456.113281 1078.761719 463.785156 1090.097656 462.019531 1091.863281 C 460.429688 1093.445312 451.699219 1080.332031 442.375 1076.550781 C 438.914062 1075.148438 435.46875 1079.027344 432.753906 1079.5 C 430.753906 1079.839844 427.667969 1080.585938 425.710938 1079.945312 L 416.34375 1078.914062 C 413.738281 1079.105469 411.152344 1079.535156 408.605469 1080.195312 C 404.574219 1081.171875 397.957031 1082.195312 392.816406 1083.617188 C 363.242188 1091.824219 353.375 1095.605469 344.320312 1095.605469 C 316.871094 1095.621094 315.28125 924.515625 339.839844 914.042969 Z M 339.839844 914.042969 "/>
<path style=" stroke:none;fill-rule:nonzero;fill:rgb(91.764706%,69.019608%,32.941176%);fill-opacity:1;" d="M 320.117188 1013.839844 C 318.171875 969.03125 318.457031 913.804688 340.585938 904.378906 C 349.316406 900.660156 364.707031 923.019531 361.941406 1014.75 C 350.128906 1015.855469 332.785156 1016.75 320.117188 1013.839844 Z M 320.117188 1013.839844 "/>
<path style=" stroke:none;fill-rule:nonzero;fill:rgb(95.686275%,45.490196%,34.509804%);fill-opacity:1;" d="M 566.59375 986.460938 L 461.882812 994.246094 C 460.527344 994.347656 459.230469 994.902344 458.15625 995.847656 C 457.078125 996.789062 456.273438 998.078125 455.839844 999.542969 L 428.738281 1091.503906 L 371.011719 1095.800781 C 370.625 1095.832031 370.25 1095.945312 369.90625 1096.136719 C 369.5625 1096.332031 369.253906 1096.597656 369 1096.929688 C 368.746094 1097.257812 368.550781 1097.640625 368.425781 1098.054688 C 368.304688 1098.46875 368.253906 1098.90625 368.277344 1099.34375 C 368.304688 1099.78125 368.40625 1100.207031 368.574219 1100.601562 C 368.746094 1100.996094 368.980469 1101.34375 369.269531 1101.632812 C 369.558594 1101.921875 369.898438 1102.144531 370.261719 1102.28125 C 370.625 1102.421875 371.007812 1102.480469 371.394531 1102.449219 L 535.6875 1090.226562 C 537.902344 1090.070312 540.03125 1089.183594 541.816406 1087.679688 C 543.597656 1086.171875 544.960938 1084.109375 545.734375 1081.738281 L 573.484375 996.953125 C 573.882812 995.730469 574.007812 994.414062 573.84375 993.125 C 573.683594 991.835938 573.238281 990.609375 572.550781 989.566406 C 571.867188 988.519531 570.960938 987.691406 569.921875 987.148438 C 568.878906 986.605469 567.734375 986.367188 566.59375 986.460938 Z M 566.59375 986.460938 "/>
<path style=" stroke:none;fill-rule:nonzero;fill:rgb(100%,100%,100%);fill-opacity:1;" d="M 514.414062 1043.28125 C 514.207031 1047.386719 511.480469 1050.546875 508.324219 1050.339844 C 505.167969 1050.132812 502.777344 1046.640625 502.988281 1042.535156 C 503.199219 1038.433594 505.921875 1035.265625 509.082031 1035.453125 C 512.238281 1035.636719 514.625 1039.179688 514.414062 1043.28125 Z M 514.414062 1043.28125 "/>
<path style=" stroke:none;fill-rule:nonzero;fill:rgb(9.411765%,27.45098%,33.333333%);fill-opacity:1;" d="M 337.96875 1116.714844 L 453.878906 1093.921875 C 453.878906 1093.921875 503.992188 1085.203125 515.511719 1102.09375 C 527.027344 1118.988281 560.484375 1337.527344 560.484375 1337.527344 C 560.484375 1337.527344 535.261719 1340.03125 533.613281 1338.777344 C 532.34375 1337.808594 501.804688 1264.945312 488.089844 1232.113281 C 483.742188 1221.691406 480.683594 1210.636719 479 1199.261719 L 474.589844 1169.511719 L 460.007812 1175.230469 C 434.390625 1185.359375 407.082031 1188.6875 380.164062 1184.960938 C 368.894531 1183.371094 358.382812 1180.601562 351.863281 1176.011719 C 331.578125 1161.636719 337.96875 1116.714844 337.96875 1116.714844 Z M 337.96875 1116.714844 "/>
<path style=" stroke:none;fill-rule:nonzero;fill:rgb(96.862745%,64.313725%,56.862745%);fill-opacity:1;" d="M 408.816406 879.511719 L 411.074219 898.582031 C 411.074219 898.582031 416.128906 926.046875 409.640625 931.34375 C 403.152344 936.640625 381.984375 897.792969 381.984375 897.792969 L 384.222656 849.488281 Z M 408.816406 879.511719 "/>
<path style=" stroke:none;fill-rule:nonzero;fill:rgb(95.686275%,45.490196%,34.509804%);fill-opacity:1;" d="M 383.488281 865.140625 C 388.855469 881.621094 401.667969 891.75 410.730469 895.65625 L 408.816406 879.488281 L 384.210938 849.464844 Z M 383.488281 865.140625 "/>
<path style=" stroke:none;fill-rule:nonzero;fill:rgb(96.862745%,64.313725%,56.862745%);fill-opacity:1;" d="M 407.480469 796.917969 C 421.261719 794.394531 433.617188 806.96875 433.273438 822.625 C 433.101562 830.8125 432.472656 838.980469 431.390625 847.078125 C 428.394531 869.085938 415.164062 888.464844 406.417969 886.734375 C 397.675781 885.007812 375.664062 866.027344 379.542969 834.703125 C 381.933594 815.367188 393.023438 799.566406 407.480469 796.917969 Z M 407.480469 796.917969 "/>
<path style=" stroke:none;fill-rule:nonzero;fill:rgb(96.862745%,64.313725%,56.862745%);fill-opacity:1;" d="M 385.605469 838.441406 C 384.871094 843.28125 381.453125 846.648438 377.980469 845.960938 C 374.503906 845.273438 372.285156 840.789062 373.023438 835.953125 C 373.761719 831.113281 377.175781 827.746094 380.648438 828.4375 C 384.121094 829.128906 386.34375 833.601562 385.605469 838.441406 Z M 385.605469 838.441406 "/>
<path style=" stroke:none;fill-rule:nonzero;fill:rgb(5.490196%,18.039216%,20.784314%);fill-opacity:1;" d="M 380.648438 828.4375 C 380.648438 828.4375 391.226562 831.417969 395.152344 823.695312 C 399.074219 815.972656 413.105469 799.316406 430.949219 806.226562 C 448.789062 813.136719 415.25 789.425781 413.824219 789.425781 C 412.398438 789.425781 395.269531 789.292969 395.269531 789.292969 C 395.269531 789.292969 382.070312 801.617188 381.59375 802.972656 C 381.113281 804.328125 377.316406 819.089844 377.316406 819.089844 Z M 380.648438 828.4375 "/>
<path style=" stroke:none;fill-rule:nonzero;fill:rgb(31.372549%,74.901961%,64.705882%);fill-opacity:1;" d="M 898.84375 1382.433594 L 1162.082031 1382.433594 L 1162.082031 1273.3125 L 898.84375 1273.3125 Z M 898.84375 1382.433594 "/>
<path style=" stroke:none;fill-rule:nonzero;fill:rgb(58.823529%,85.098039%,78.823529%);fill-opacity:1;" d="M 898.84375 1303.25 L 1162.082031 1303.25 L 1162.082031 1289.214844 L 898.84375 1289.214844 Z M 898.84375 1303.25 "/>
<path style=" stroke:none;fill-rule:nonzero;fill:rgb(58.823529%,85.098039%,78.823529%);fill-opacity:1;" d="M 898.84375 1330.679688 L 1162.082031 1330.679688 L 1162.082031 1316.632812 L 898.84375 1316.632812 Z M 898.84375 1330.679688 "/>
<path style=" stroke:none;fill-rule:nonzero;fill:rgb(58.823529%,85.098039%,78.823529%);fill-opacity:1;" d="M 898.84375 1358.082031 L 1162.082031 1358.082031 L 1162.082031 1344.046875 L 898.84375 1344.046875 Z M 898.84375 1358.082031 "/>
<path style=" stroke:none;fill-rule:nonzero;fill:rgb(58.823529%,85.098039%,78.823529%);fill-opacity:1;" d="M 898.84375 1382.433594 L 1162.082031 1382.433594 L 1162.082031 1368.402344 L 898.84375 1368.402344 Z M 898.84375 1382.433594 "/>
<path style=" stroke:none;fill-rule:nonzero;fill:rgb(96.862745%,80%,49.803922%);fill-opacity:1;" d="M 996.832031 1382.433594 L 1051.582031 1382.433594 L 1051.582031 1273.3125 L 996.832031 1273.3125 Z M 996.832031 1382.433594 "/>
<path style=" stroke:none;fill-rule:nonzero;fill:rgb(23.529412%,56.078431%,48.627451%);fill-opacity:1;" d="M 1158.886719 1382.433594 L 1198.640625 1382.433594 L 1198.640625 1273.3125 L 1158.886719 1273.3125 Z M 1158.886719 1382.433594 "/>
<path style=" stroke:none;fill-rule:nonzero;fill:rgb(5.490196%,18.039216%,20.784314%);fill-opacity:1;" d="M 1454.617188 1380.878906 L 0 1380.878906 L 0 1390.332031 L 1454.617188 1390.332031 Z M 1454.617188 1380.878906 "/>
<path style=" stroke:none;fill-rule:nonzero;fill:rgb(31.372549%,74.901961%,64.705882%);fill-opacity:1;" d="M 562.894531 812.433594 L 564.746094 838.300781 L 577.933594 821.40625 L 620.578125 781.628906 L 584.21875 794.679688 C 584.21875 794.679688 566.316406 804.585938 565.492188 805.894531 C 564.671875 807.199219 562.894531 812.433594 562.894531 812.433594 Z M 562.894531 812.433594 "/>
<path style=" stroke:none;fill-rule:nonzero;fill:rgb(58.823529%,85.098039%,78.823529%);fill-opacity:1;" d="M 543.574219 801.324219 L 620.59375 781.59375 L 562.894531 812.429688 Z M 543.574219 801.324219 "/>
<path style=" stroke:none;fill-rule:nonzero;fill:rgb(58.823529%,85.098039%,78.823529%);fill-opacity:1;" d="M 592.519531 831.582031 L 568.773438 818.085938 L 620.59375 781.59375 Z M 592.519531 831.582031 "/>
<path style=" stroke:none;fill-rule:nonzero;fill:rgb(23.529412%,56.078431%,48.627451%);fill-opacity:1;" d="M 553.90625 826.789062 C 555.910156 825.902344 557.996094 825.277344 560.125 824.933594 L 559.949219 823.050781 C 557.683594 823.414062 555.464844 824.074219 553.335938 825.019531 Z M 553.90625 826.789062 "/>
<path style=" stroke:none;fill-rule:nonzero;fill:rgb(23.529412%,56.078431%,48.627451%);fill-opacity:1;" d="M 515.894531 979.609375 C 518.953125 976.441406 521.75 972.960938 524.246094 969.210938 L 525.570312 970.34375 C 523.011719 974.191406 520.148438 977.757812 517.015625 981.003906 Z M 530.660156 957.179688 C 531.472656 955.234375 532.222656 953.207031 532.882812 951.152344 C 533.636719 948.832031 534.320312 946.402344 534.859375 943.933594 L 536.46875 944.402344 C 535.894531 946.929688 535.214844 949.417969 534.441406 951.804688 C 533.765625 953.914062 533.007812 955.996094 532.15625 957.992188 Z M 537.355469 915.84375 L 539.015625 915.796875 C 539.128906 920.601562 538.992188 925.40625 538.605469 930.1875 L 536.953125 930.007812 C 537.335938 925.300781 537.472656 920.570312 537.363281 915.84375 Z M 535 887.503906 L 536.640625 887.238281 C 537.332031 892.769531 537.832031 897.289062 538.199219 901.460938 L 536.550781 901.652344 C 536.183594 897.511719 535.691406 893.015625 535.003906 887.511719 Z M 533.136719 873.273438 C 532.496094 868.527344 532.285156 863.71875 532.511719 858.925781 L 534.167969 859.042969 C 533.949219 863.707031 534.15625 868.378906 534.777344 872.996094 L 534.777344 873.101562 L 533.136719 873.359375 Z M 535.222656 844.722656 C 536.835938 840.164062 539.296875 836.054688 542.429688 832.667969 L 543.566406 834.042969 C 540.609375 837.242188 538.285156 841.128906 536.757812 845.4375 Z M 535.222656 844.722656 "/>
</g>
</svg>
