<svg width="151" height="173" viewBox="0 0 151 173" fill="none" xmlns="http://www.w3.org/2000/svg">
<path fill-rule="evenodd" clip-rule="evenodd" d="M150 128.714V54.2143L96.7861 1H43.5718C37.9265 1 32.5124 3.24259 28.5206 7.23444C24.5287 11.2263 22.2861 16.6404 22.2861 22.2857V128.714C22.2861 134.36 24.5287 139.774 28.5206 143.766C32.5124 147.757 37.9265 150 43.5718 150H128.715C134.36 150 139.774 147.757 143.766 143.766C147.758 139.774 150 134.36 150 128.714Z" stroke="black" stroke-opacity="0.42" stroke-width="2" stroke-linecap="round" stroke-linejoin="round"/>
<path d="M22.2857 22.2857C16.6404 22.2857 11.2263 24.5283 7.23444 28.5202C3.24259 32.512 1 37.9261 1 43.5714V150C1 155.645 3.24259 161.059 7.23444 165.051C11.2263 169.043 16.6404 171.286 22.2857 171.286H107.429C113.074 171.286 118.488 169.043 122.48 165.051C126.472 161.059 128.714 155.645 128.714 150M96.7857 1V32.9286C96.7857 38.5739 99.0283 43.988 103.02 47.9798C107.012 51.9717 112.426 54.2143 118.071 54.2143H150L96.7857 1Z" stroke="black" stroke-opacity="0.42" stroke-width="2" stroke-linecap="round" stroke-linejoin="round"/>
<path d="M102.16 86.256H87.472V101.736H82.252V86.256H67.636V81.396H82.252V66.024H87.472V81.396H102.16V86.256Z" fill="black" fill-opacity="0.32"/>
</svg>
